<svg width="14" height="14" viewBox="0 0 14 14" fill="none" xmlns="http://www.w3.org/2000/svg">
<path fill-rule="evenodd" clip-rule="evenodd" d="M7 1.36111C3.88558 1.36111 1.36111 3.88558 1.36111 7C1.36111 10.1144 3.88558 12.6389 7 12.6389C10.1144 12.6389 12.6389 10.1144 12.6389 7C12.6389 3.88558 10.1144 1.36111 7 1.36111ZM0 7C0 3.13386 3.13386 0 7 0C10.8661 0 14 3.13386 14 7C14 10.8661 10.8661 14 7 14C3.13386 14 0 10.8661 0 7ZM7 2.43056C7.37586 2.43056 7.68056 2.73525 7.68056 3.11111V6.7181L9.42567 8.46322C9.69144 8.72899 9.69144 9.1599 9.42567 9.42567C9.1599 9.69144 8.72899 9.69144 8.46322 9.42567L6.51877 7.48123C6.39115 7.3536 6.31944 7.18049 6.31944 7V3.11111C6.31944 2.73525 6.62414 2.43056 7 2.43056Z" fill="#9e9e9e"/>
</svg>
