<svg width="12" height="12" viewBox="0 0 12 12" fill="none" xmlns="http://www.w3.org/2000/svg">
<path fill-rule="evenodd" clip-rule="evenodd" d="M0.188289 0.188289C0.43934 -0.0627628 0.846374 -0.0627628 1.09743 0.188289L6 5.09086L10.9026 0.188289C11.1536 -0.0627628 11.5607 -0.0627628 11.8117 0.188289C12.0628 0.43934 12.0628 0.846374 11.8117 1.09743L6.90914 6L11.8117 10.9026C12.0628 11.1536 12.0628 11.5607 11.8117 11.8117C11.5607 12.0628 11.1536 12.0628 10.9026 11.8117L6 6.90914L1.09743 11.8117C0.846374 12.0628 0.43934 12.0628 0.188289 11.8117C-0.0627628 11.5607 -0.0627628 11.1536 0.188289 10.9026L5.09086 6L0.188289 1.09743C-0.0627628 0.846374 -0.0627628 0.43934 0.188289 0.188289Z" fill="#9E9E9E"/>
</svg>
