<svg width="19" height="19" viewBox="0 0 19 19" fill="none" xmlns="http://www.w3.org/2000/svg">
<g clip-path="url(#clip0_3383_37993)">
<path d="M4.88755 14.6529C5.29317 15.0296 5.9235 15.0103 6.29543 14.6098C6.66736 14.2093 6.64005 13.5792 6.23444 13.2026C5.82882 12.8259 5.19849 12.8452 4.82656 13.2457C4.45462 13.6462 4.48193 14.2762 4.88755 14.6529Z" fill="white"/>
<path d="M3.15358 16.5217C1.70102 15.1728 1.60276 12.9056 2.93468 11.4713C3.71288 10.6334 4.81612 10.2473 5.94988 10.3848L9.93816 6.09019C9.46706 4.61725 9.80398 2.99431 10.8516 1.86627C11.8991 0.738228 13.4071 0.292802 14.9251 0.622065L15.8663 0.835912L13.7936 3.06782L14.0552 4.76637L15.7841 4.9013L17.8493 2.67744L18.1246 3.6084C18.5726 5.08988 18.2248 6.6427 17.1922 7.75463C16.1596 8.86655 14.5435 9.3466 13.0473 8.97753L9.05899 13.2721C9.27985 14.3927 8.96886 15.5294 8.19814 16.3594C6.86622 17.7936 4.59797 17.8631 3.14541 16.5141L3.15358 16.5217ZM13.6068 1.6488C12.8743 1.73386 12.1839 2.06814 11.6676 2.6241C10.8295 3.52653 10.5974 4.85662 11.0862 6.01589L11.2256 6.3404L6.36185 11.5777L6.05376 11.5167C5.19206 11.3317 4.33437 11.6007 3.75072 12.2292C2.83035 13.2202 2.89812 14.7838 3.90185 15.7159C4.90557 16.6481 6.46989 16.6002 7.39026 15.6091C7.97391 14.9806 8.17877 14.1054 7.93065 13.2597L7.84704 12.957L12.7108 7.71966L13.0447 7.83468C14.2369 8.23655 15.5462 7.90681 16.3843 7.00437C16.9006 6.44841 17.1837 5.75085 17.2144 5.01406L16.2416 6.06152L13.0981 5.81336L12.6266 2.70433L13.6143 1.64074L13.6068 1.6488Z" fill="white"/>
</g>
<defs>
<clipPath id="clip0_3383_37993">
<rect width="18" height="18" fill="white" transform="translate(0.78125 0.137695)"/>
</clipPath>
</defs>
</svg>
