<svg width="19" height="13" viewBox="0 0 19 13" fill="none" xmlns="http://www.w3.org/2000/svg">
<path fill-rule="evenodd" clip-rule="evenodd" d="M5.52258 0.375H11.2414V1.2356H9.0184L6.09931 5.6549C6.60174 5.92698 7.03033 6.31803 7.34731 6.79028H12.4462C13.0765 5.85131 14.1481 5.23336 15.3639 5.23336C17.3033 5.23336 18.8755 6.80554 18.8755 8.74493C18.8755 10.6843 17.3033 12.2565 15.3639 12.2565C13.4246 12.2565 11.8524 10.6843 11.8524 8.74493C11.8524 8.47604 11.8826 8.21421 11.9398 7.96265H7.85367C7.91089 8.21418 7.94111 8.47598 7.94111 8.74484C7.94111 10.6842 6.36893 12.2564 4.42954 12.2564C2.49015 12.2564 0.917969 10.6842 0.917969 8.74484C0.917969 6.80545 2.49015 5.23327 4.42954 5.23327C4.72217 5.23327 5.00645 5.26907 5.27822 5.33652L7.98701 1.2356H5.52258V0.375ZM12.8718 7.96265H12.8722V7.96132C13.2051 6.90199 14.1948 6.13362 15.3639 6.13362C16.8061 6.13362 17.9753 7.30274 17.9753 8.74493C17.9753 10.1871 16.8061 11.3562 15.3639 11.3562C13.9218 11.3562 12.7526 10.1871 12.7526 8.74493C12.7526 8.4724 12.7944 8.20963 12.8718 7.96265ZM4.42954 11.3562C5.87173 11.3562 7.04085 10.1871 7.04085 8.74493C7.04085 7.30274 5.87173 6.13362 4.42954 6.13362C2.98735 6.13362 1.81823 7.30274 1.81823 8.74493C1.81823 10.1871 2.98735 11.3562 4.42954 11.3562Z" fill="#142337"/>
</svg>
