<svg width="10" height="18" viewBox="0 0 10 18" fill="none" xmlns="http://www.w3.org/2000/svg">
<path d="M7.40784 6.9658H2.58975C1.39084 6.9658 0.416016 6.05838 0.416016 4.94237C0.416016 3.82636 1.39084 2.91895 2.58975 2.91895H7.40784C8.60675 2.91895 9.58158 3.82636 9.58158 4.94237C9.58158 6.05838 8.60675 6.9658 7.40784 6.9658ZM2.58975 3.97238C2.0071 3.97238 1.5365 4.41044 1.5365 4.9528C1.5365 5.49516 2.0071 5.93322 2.58975 5.93322H7.40784C7.99049 5.93322 8.46109 5.49516 8.46109 4.9528C8.46109 4.41044 7.99049 3.97238 7.40784 3.97238H2.58975Z" fill="#142337"/>
<path d="M5.00165 3.97183C4.68791 3.97183 4.44141 3.74237 4.44141 3.45033V1.07228C4.44141 0.780242 4.68791 0.550781 5.00165 0.550781C5.31538 0.550781 5.56189 0.780242 5.56189 1.07228V3.45033C5.56189 3.74237 5.31538 3.97183 5.00165 3.97183Z" fill="#142337"/>
<path d="M7.67151 17.5519H2.30439C1.29596 17.5519 0.466797 16.7801 0.466797 15.8414V9.51033C0.466797 8.5612 1.29596 7.7998 2.30439 7.7998H7.67151C8.69115 7.7998 9.5091 8.57163 9.5091 9.51033V15.8414C9.5091 16.7905 8.67994 17.5519 7.67151 17.5519ZM2.30439 8.83238C1.91222 8.83238 1.58728 9.13485 1.58728 9.4999V15.8309C1.58728 16.196 1.91222 16.4984 2.30439 16.4984H7.67151C8.06368 16.4984 8.38862 16.196 8.38862 15.8309V9.4999C8.38862 9.13485 8.06368 8.83238 7.67151 8.83238H2.30439Z" fill="#142337"/>
<path d="M8.95808 10.8867H5.42856C5.27169 10.8867 5.14844 10.772 5.14844 10.626C5.14844 10.48 5.27169 10.3652 5.42856 10.3652H8.95808C9.11495 10.3652 9.2382 10.48 9.2382 10.626C9.2382 10.772 9.11495 10.8867 8.95808 10.8867Z" fill="#142337"/>
<path d="M8.95808 12.9317H5.42856C5.27169 12.9317 5.14844 12.8169 5.14844 12.6709C5.14844 12.5249 5.27169 12.4102 5.42856 12.4102H8.95808C9.11495 12.4102 9.2382 12.5249 9.2382 12.6709C9.2382 12.8169 9.11495 12.9317 8.95808 12.9317Z" fill="#142337"/>
<path d="M8.95808 14.9649H5.42856C5.27169 14.9649 5.14844 14.8501 5.14844 14.7041C5.14844 14.5581 5.27169 14.4434 5.42856 14.4434H8.95808C9.11495 14.4434 9.2382 14.5581 9.2382 14.7041C9.2382 14.8501 9.11495 14.9649 8.95808 14.9649Z" fill="#142337"/>
</svg>
