<svg width="17" height="14" viewBox="0 0 17 14" fill="none" xmlns="http://www.w3.org/2000/svg">
<path d="M6.69927 8.50391C4.65506 8.50391 2.99414 6.84299 2.99414 4.79878C2.99414 2.75457 4.65506 1.08301 6.69927 1.08301C8.74347 1.08301 10.4044 2.74393 10.4044 4.78813C10.4044 6.83234 8.74347 8.49326 6.69927 8.49326V8.50391ZM6.69927 2.1477C5.24064 2.1477 4.05883 3.32951 4.05883 4.78813C4.05883 6.24676 5.24064 7.42857 6.69927 7.42857C8.15789 7.42857 9.3397 6.24676 9.3397 4.78813C9.3397 3.32951 8.15789 2.1477 6.69927 2.1477Z" fill="#142337"/>
<path d="M12.8095 13.5614H11.7448C11.7448 10.7719 9.47699 8.50414 6.6875 8.50414C3.89801 8.50414 1.64086 10.7719 1.64086 13.5614H0.576172C0.576172 10.1864 3.32308 7.43945 6.69815 7.43945C10.0732 7.43945 12.8201 10.1864 12.8201 13.5614H12.8095Z" fill="#142337"/>
<path d="M14.6654 9.03708C14.5589 9.03708 14.4524 8.99449 14.3672 8.90931C14.2182 8.74961 14.2288 8.49408 14.3885 8.34503C15.3894 7.41875 15.943 6.17306 15.943 4.8209C15.943 3.46874 15.3468 2.15917 14.314 1.24354C14.1437 1.09448 14.133 0.8496 14.2821 0.679249C14.4311 0.508899 14.676 0.498252 14.8464 0.647309C16.0495 1.72265 16.7522 3.24516 16.7522 4.8209C16.7522 6.39664 16.1027 7.84462 14.9422 8.93061C14.8677 9.00513 14.7718 9.03708 14.676 9.03708H14.6654Z" fill="#142337"/>
<path d="M12.936 8.27071C12.8295 8.27071 12.723 8.22813 12.6485 8.14295C12.4994 7.98325 12.5101 7.72772 12.6698 7.57866C13.447 6.85467 13.8729 5.87516 13.8729 4.83176C13.8729 3.78836 13.4044 2.74496 12.5953 2.03162C12.4249 1.88256 12.4143 1.63769 12.5633 1.46734C12.7124 1.29698 12.9573 1.28634 13.1276 1.43539C14.1071 2.30844 14.6714 3.54348 14.6714 4.84241C14.6714 6.14133 14.1497 7.2912 13.2128 8.17489C13.1383 8.24942 13.0424 8.28136 12.936 8.28136V8.27071Z" fill="#142337"/>
<path d="M12.936 8.27071C12.8295 8.27071 12.723 8.22813 12.6485 8.14295C12.4994 7.98325 12.5101 7.72772 12.6698 7.57866C13.447 6.85467 13.8729 5.87516 13.8729 4.83176C13.8729 3.78836 13.4044 2.74496 12.5953 2.03162C12.4249 1.88256 12.4143 1.63769 12.5633 1.46734C12.7124 1.29698 12.9573 1.28634 13.1276 1.43539C14.1071 2.30844 14.6714 3.54348 14.6714 4.84241C14.6714 6.14133 14.1497 7.2912 13.2128 8.17489C13.1383 8.24942 13.0424 8.28136 12.936 8.28136V8.27071Z" fill="#142337"/>
<path d="M11.1174 7.45042C11.0109 7.45042 10.9045 7.40784 10.8299 7.32266C10.6809 7.16296 10.6809 6.90743 10.8406 6.75837C11.3836 6.24732 11.6817 5.55527 11.6817 4.83128C11.6817 4.10729 11.3516 3.37266 10.7554 2.85096C10.5851 2.7019 10.5744 2.45702 10.7235 2.28667C10.8725 2.11632 11.1174 2.10567 11.2878 2.25473C12.0543 2.93613 12.4802 3.85177 12.4802 4.83128C12.4802 5.8108 12.0863 6.6732 11.3836 7.34396C11.3091 7.41848 11.2026 7.45042 11.1068 7.45042H11.1174Z" fill="#142337"/>
</svg>
