<svg width="19" height="14" viewBox="0 0 19 14" fill="none" xmlns="http://www.w3.org/2000/svg">
<path fill-rule="evenodd" clip-rule="evenodd" d="M11.8573 1.50326C13.4375 1.50326 14.7272 2.79296 14.7272 4.37314C14.7272 5.88259 13.5503 7.12699 12.0676 7.23536C11.9987 7.23299 11.9295 7.2318 11.86 7.2318C11.1745 7.2318 10.5122 7.34799 9.89639 7.55713C9.97142 7.6046 10.0483 7.64944 10.1268 7.69153C10.0466 7.64952 9.9682 7.60497 9.89167 7.55812C9.62444 7.63945 9.38044 7.75564 9.13644 7.87183C9.47339 8.03449 9.7871 8.2204 10.0776 8.44116C10.6353 8.24363 11.2279 8.12744 11.8553 8.12744C11.6715 8.12744 11.4908 8.11308 11.3141 8.0859C11.4923 8.11261 11.6746 8.12646 11.86 8.12646C12.575 8.12646 13.2442 7.90899 13.8108 7.56493L13.8171 7.56704C13.2509 7.9215 12.5824 8.12703 11.8683 8.12703C14.8311 8.12703 17.2479 10.5438 17.2479 13.5066H18.1425C18.1425 10.7413 16.33 8.38265 13.8435 7.5577H13.838C14.8975 6.89354 15.6102 5.72536 15.6102 4.38475C15.6102 2.31658 13.9255 0.631836 11.8457 0.631836C10.7651 0.631836 9.80075 1.09659 9.11523 1.81697C9.32438 2.03773 9.49866 2.29334 9.64971 2.56058C10.1726 1.93316 10.9626 1.52649 11.8341 1.52649L11.8573 1.50326ZM9.66651 6.1976C9.51546 6.46484 9.34117 6.72046 9.13203 6.94122C9.35279 7.18521 9.60841 7.38274 9.88727 7.55702C10.5031 7.34788 11.1653 7.23169 11.8509 7.23169C10.9678 7.23169 10.1894 6.82503 9.66651 6.1976Z" fill="#142337"/>
<path fill-rule="evenodd" clip-rule="evenodd" d="M3.52803 4.35058C3.53434 2.7757 4.82159 1.49231 6.39789 1.49231C7.27951 1.49231 8.05689 1.89767 8.59129 2.52337L8.58347 2.53716C8.82747 2.82763 9.00175 3.15296 9.11794 3.52477L9.12123 3.51463C9.20246 3.78168 9.26047 4.06034 9.26047 4.3622C9.26047 4.66429 9.20237 4.94315 9.12104 5.21038C9.23723 5.57057 9.41152 5.90752 9.65551 6.198C9.95761 5.6519 10.1551 5.0361 10.1551 4.3622C10.1551 3.6883 9.96922 3.0725 9.65551 2.52641L9.65003 2.53295C9.49957 2.2673 9.32606 2.01326 9.11807 1.79369L9.12834 1.78279C8.44282 1.0508 7.47845 0.597656 6.39789 0.597656C4.32972 0.597656 2.64497 2.2824 2.64497 4.35058C2.64497 5.69837 3.36534 6.87189 4.43429 7.53417C5.05009 7.32503 5.71237 7.20884 6.39789 7.20884C4.82159 7.20884 3.53434 5.92545 3.52803 4.35058ZM9.11001 6.94063C8.90087 6.71987 8.72659 6.46426 8.57554 6.19702C8.05269 6.82445 7.27422 7.23111 6.39118 7.23111C6.62419 7.23111 6.85451 7.24453 7.08124 7.27047C6.85776 7.24528 6.63081 7.23225 6.40125 7.23225C5.71573 7.23225 5.05345 7.34844 4.43764 7.55758C4.43813 7.55789 4.43861 7.5582 4.4391 7.5585C1.94232 8.38419 0.142578 10.7422 0.142578 13.5066H1.02562C1.02562 10.5437 3.44236 8.12701 6.40519 8.12701C6.38369 8.12701 6.36224 8.12681 6.34083 8.12642C6.36093 8.12675 6.38107 8.12691 6.40125 8.12691C7.08459 8.12691 7.72611 7.92826 8.27623 7.61031C7.72546 7.93818 7.08287 8.12704 6.39831 8.12704C7.02408 8.12704 7.61517 8.24262 8.17159 8.43919L8.17062 8.43993C8.50757 8.55612 8.82128 8.70716 9.11176 8.88145C9.41385 8.70716 9.72756 8.55612 10.0529 8.43993C9.75189 8.21996 9.43935 8.03461 9.11528 7.87236L9.11714 7.87143C8.87369 7.7555 8.61866 7.65113 8.36362 7.55834L8.36485 7.55758L8.35713 7.55497C8.63507 7.38098 8.88987 7.17236 9.11001 6.94063ZM8.58347 6.19768C8.73452 6.46492 8.9088 6.72053 9.11794 6.9413C9.32708 6.72053 9.50137 6.46492 9.65241 6.19768C9.40841 5.90721 9.23413 5.58188 9.11794 5.21007C9.00175 5.57026 8.82747 5.90721 8.58347 6.19768ZM11.7809 13.5066H12.6755C12.6755 11.4268 11.653 9.57936 10.0729 8.4407C9.73592 8.55689 9.42221 8.70794 9.13174 8.88222C10.7119 9.82336 11.7809 11.543 11.7809 13.5066Z" fill="#142337"/>
<path d="M3.52803 4.35058L3.47803 4.35038L3.47803 4.35078L3.52803 4.35058ZM8.59129 2.52337L8.63478 2.54804L8.65207 2.51756L8.62931 2.4909L8.59129 2.52337ZM8.58347 2.53716L8.53998 2.51249L8.52283 2.54271L8.54518 2.56932L8.58347 2.53716ZM9.11794 3.52477L9.07022 3.53968L9.11704 3.68952L9.1655 3.5402L9.11794 3.52477ZM9.12123 3.51463L9.16906 3.50008L9.12277 3.3479L9.07367 3.4992L9.12123 3.51463ZM9.12104 5.21038L9.07321 5.19583L9.06865 5.21082L9.07346 5.22573L9.12104 5.21038ZM9.65551 6.198L9.61723 6.23015L9.66404 6.28588L9.69927 6.2222L9.65551 6.198ZM9.65551 2.52641L9.69887 2.5015L9.66318 2.43938L9.61718 2.4943L9.65551 2.52641ZM9.65003 2.53295L9.60653 2.55759L9.64206 2.62034L9.68836 2.56506L9.65003 2.53295ZM9.11807 1.79369L9.08168 1.7594L9.04929 1.79377L9.08177 1.82807L9.11807 1.79369ZM9.12834 1.78279L9.16473 1.81708L9.19694 1.78289L9.16484 1.74861L9.12834 1.78279ZM4.43429 7.53417L4.40795 7.57667L4.42802 7.5891L4.45037 7.58151L4.43429 7.53417ZM8.57554 6.19702L8.61907 6.17242L8.58346 6.10942L8.53713 6.16501L8.57554 6.19702ZM9.11001 6.94063L9.14626 6.97507L9.17893 6.94068L9.14631 6.90625L9.11001 6.94063ZM7.08124 7.27047L7.07564 7.32015L7.08692 7.22079L7.08124 7.27047ZM4.43764 7.55758L4.42157 7.51024L4.32244 7.5439L4.41092 7.59984L4.43764 7.55758ZM4.4391 7.5585L4.4548 7.60597L4.55522 7.57276L4.46582 7.51624L4.4391 7.5585ZM0.142578 13.5066H0.0925781V13.5566H0.142578V13.5066ZM1.02562 13.5066V13.5566H1.07562V13.5066H1.02562ZM6.34083 8.12642L6.34164 8.07643L6.33991 8.17641L6.34083 8.12642ZM8.27623 7.61031L8.3018 7.65328L8.25121 7.56702L8.27623 7.61031ZM8.17159 8.43919L8.20185 8.479L8.27563 8.42292L8.18824 8.39205L8.17159 8.43919ZM8.17062 8.43993L8.14036 8.40012L8.06591 8.45671L8.15432 8.4872L8.17062 8.43993ZM9.11176 8.88145L9.08603 8.92432L9.11126 8.93946L9.13674 8.92476L9.11176 8.88145ZM10.0529 8.43993L10.0697 8.48701L10.1586 8.45526L10.0824 8.39956L10.0529 8.43993ZM9.11528 7.87236L9.09292 7.82764L9.00353 7.87233L9.09289 7.91707L9.11528 7.87236ZM9.11714 7.87143L9.1395 7.91615L9.23114 7.87033L9.13864 7.82628L9.11714 7.87143ZM8.36362 7.55834L8.33751 7.51569L8.24904 7.56986L8.34652 7.60532L8.36362 7.55834ZM8.36485 7.55758L8.39095 7.60023L8.482 7.54449L8.38089 7.51023L8.36485 7.55758ZM8.35713 7.55497L8.3306 7.51259L8.24128 7.5685L8.34109 7.60232L8.35713 7.55497ZM9.11794 6.9413L9.08164 6.97568L9.11794 7.014L9.15424 6.97568L9.11794 6.9413ZM8.58347 6.19768L8.54518 6.16552L8.52287 6.19209L8.53994 6.22229L8.58347 6.19768ZM9.65241 6.19768L9.69594 6.22229L9.71301 6.19209L9.6907 6.16552L9.65241 6.19768ZM9.11794 5.21007L9.16566 5.19516L9.1187 5.04486L9.07035 5.19472L9.11794 5.21007ZM12.6755 13.5066V13.5566H12.7255V13.5066H12.6755ZM11.7809 13.5066H11.7309V13.5566H11.7809V13.5066ZM10.0729 8.4407L10.1021 8.40014L10.0811 8.38498L10.0566 8.39343L10.0729 8.4407ZM9.13174 8.88222L9.10601 8.83935L9.03429 8.88238L9.10615 8.92518L9.13174 8.88222ZM6.39789 1.44231C4.79404 1.44231 3.48445 2.74798 3.47803 4.35038L3.57803 4.35078C3.58423 2.80342 4.84914 1.54231 6.39789 1.54231V1.44231ZM8.62931 2.4909C8.08631 1.85512 7.29546 1.44231 6.39789 1.44231V1.54231C7.26356 1.54231 8.02748 1.94022 8.55327 2.55585L8.62931 2.4909ZM8.62696 2.56183L8.63478 2.54804L8.5478 2.4987L8.53998 2.51249L8.62696 2.56183ZM9.16566 3.50985C9.04762 3.13211 8.87026 2.80084 8.62175 2.505L8.54518 2.56932C8.78468 2.85443 8.95588 3.17381 9.07022 3.53968L9.16566 3.50985ZM9.07367 3.4992L9.07038 3.50933L9.1655 3.5402L9.16879 3.53007L9.07367 3.4992ZM9.31047 4.3622C9.31047 4.05383 9.25119 3.77005 9.16906 3.50008L9.07339 3.52918C9.15374 3.79332 9.21047 4.06686 9.21047 4.3622H9.31047ZM9.16888 5.22494C9.25109 4.95479 9.31047 4.67081 9.31047 4.3622H9.21047C9.21047 4.65777 9.15365 4.9315 9.07321 5.19583L9.16888 5.22494ZM9.6938 6.16584C9.45455 5.88101 9.28314 5.55001 9.16863 5.19503L9.07346 5.22573C9.19133 5.59113 9.36848 5.93403 9.61723 6.23015L9.6938 6.16584ZM10.1051 4.3622C10.1051 5.02603 9.91061 5.63357 9.61176 6.17379L9.69927 6.2222C10.0046 5.67024 10.2051 5.04617 10.2051 4.3622H10.1051ZM9.61216 2.55131C9.92194 3.09056 10.1051 3.69785 10.1051 4.3622H10.2051C10.2051 3.67876 10.0165 3.05444 9.69887 2.5015L9.61216 2.55131ZM9.68836 2.56506L9.69384 2.55851L9.61718 2.4943L9.6117 2.50085L9.68836 2.56506ZM9.08177 1.82807C9.28615 2.04383 9.45737 2.29425 9.60653 2.55759L9.69354 2.50831C9.54176 2.24034 9.36597 1.98268 9.15437 1.7593L9.08177 1.82807ZM9.09195 1.7485L9.08168 1.7594L9.15446 1.82798L9.16473 1.81708L9.09195 1.7485ZM6.39789 0.647656C7.46403 0.647656 8.41537 1.09462 9.09185 1.81697L9.16484 1.74861C8.47028 1.00697 7.49288 0.547656 6.39789 0.547656V0.647656ZM2.69497 4.35058C2.69497 2.31002 4.35733 0.647656 6.39789 0.647656V0.547656C4.3021 0.547656 2.59497 2.25479 2.59497 4.35058H2.69497ZM4.46062 7.49166C3.40544 6.83791 2.69497 5.67997 2.69497 4.35058H2.59497C2.59497 5.71678 3.32525 6.90587 4.40795 7.57667L4.46062 7.49166ZM6.39789 7.15884C5.70671 7.15884 5.039 7.27599 4.41821 7.48682L4.45037 7.58151C5.06118 7.37406 5.71803 7.25884 6.39789 7.25884V7.15884ZM3.47803 4.35078C3.48445 5.95317 4.79404 7.25884 6.39789 7.25884V7.15884C4.84914 7.15884 3.58423 5.89773 3.57803 4.35038L3.47803 4.35078ZM8.53201 6.22163C8.68437 6.49118 8.86095 6.75043 9.07371 6.97502L9.14631 6.90625C8.9408 6.68932 8.76881 6.43734 8.61907 6.17242L8.53201 6.22163ZM6.39118 7.28111C7.29012 7.28111 8.0823 6.86702 8.61395 6.22903L8.53713 6.16501C8.02308 6.78187 7.25832 7.18111 6.39118 7.18111V7.28111ZM7.08692 7.22079C6.85833 7.19464 6.62611 7.18111 6.39118 7.18111V7.28111C6.62227 7.28111 6.85069 7.29442 7.07555 7.32014L7.08692 7.22079ZM6.40125 7.28225C6.62891 7.28225 6.854 7.29517 7.07564 7.32015L7.08684 7.22078C6.86152 7.19539 6.6327 7.18225 6.40125 7.18225V7.28225ZM4.45372 7.60493C5.06454 7.39748 5.72139 7.28225 6.40125 7.28225V7.18225C5.71007 7.18225 5.04236 7.2994 4.42157 7.51024L4.45372 7.60493ZM4.46582 7.51624C4.46558 7.51609 4.46534 7.51594 4.4651 7.51579C4.46486 7.51563 4.46461 7.51548 4.46436 7.51532L4.41092 7.59984C4.41116 7.59999 4.4114 7.60014 4.41164 7.6003C4.41188 7.60045 4.41213 7.60061 4.41238 7.60076L4.46582 7.51624ZM4.4234 7.51103C1.90673 8.3433 0.0925781 10.72 0.0925781 13.5066H0.192578C0.192578 10.7644 1.97791 8.42508 4.4548 7.60597L4.4234 7.51103ZM0.142578 13.5566H1.02562V13.4566H0.142578V13.5566ZM1.07562 13.5066C1.07562 10.5714 3.46997 8.17701 6.40519 8.17701V8.07701C3.41474 8.07701 0.975618 10.5161 0.975618 13.5066H1.07562ZM6.40519 8.07701C6.384 8.07701 6.36285 8.07681 6.34174 8.07643L6.33991 8.17641C6.36163 8.17681 6.38339 8.17701 6.40519 8.17701V8.07701ZM6.40125 8.07691C6.38134 8.07691 6.36147 8.07675 6.34164 8.07643L6.34001 8.17641C6.36039 8.17674 6.3808 8.17691 6.40125 8.17691V8.07691ZM8.25121 7.56702C7.70778 7.88111 7.07481 8.07691 6.40125 8.07691V8.17691C7.09437 8.17691 7.74444 7.97542 8.30125 7.6536L8.25121 7.56702ZM6.39831 8.17704C7.09218 8.17704 7.74357 7.98559 8.3018 7.65328L8.25065 7.56735C7.70735 7.89077 7.07356 8.07704 6.39831 8.07704V8.17704ZM8.18824 8.39205C7.62708 8.1938 7.03035 8.07704 6.39831 8.07704V8.17704C7.0178 8.17704 7.60326 8.29144 8.15493 8.48634L8.18824 8.39205ZM8.20088 8.47973L8.20185 8.479L8.14133 8.39939L8.14036 8.40012L8.20088 8.47973ZM9.13748 8.83857C8.84432 8.66267 8.52746 8.51009 8.18692 8.39266L8.15432 8.4872C8.48768 8.60215 8.79825 8.75165 9.08603 8.92432L9.13748 8.83857ZM10.0361 8.39284C9.70743 8.51021 9.39098 8.66263 9.08677 8.83814L9.13674 8.92476C9.43672 8.75169 9.74769 8.60202 10.0697 8.48701L10.0361 8.39284ZM9.09289 7.91707C9.41482 8.07824 9.72492 8.26219 10.0234 8.4803L10.0824 8.39956C9.77885 8.17774 9.46388 7.99097 9.13766 7.82765L9.09289 7.91707ZM9.09478 7.82671L9.09292 7.82764L9.13764 7.91708L9.1395 7.91615L9.09478 7.82671ZM8.34652 7.60532C8.60035 7.69768 8.85387 7.80144 9.09565 7.91657L9.13864 7.82628C8.8935 7.70955 8.63698 7.60459 8.38071 7.51135L8.34652 7.60532ZM8.33874 7.51494L8.33751 7.51569L8.38972 7.60098L8.39095 7.60023L8.33874 7.51494ZM8.34109 7.60232L8.3488 7.60494L8.38089 7.51023L8.37318 7.50761L8.34109 7.60232ZM9.07376 6.9062C8.85653 7.13486 8.605 7.34081 8.3306 7.51259L8.38366 7.59735C8.66514 7.42114 8.92321 7.20986 9.14626 6.97507L9.07376 6.9062ZM9.15424 6.90691C8.94872 6.68998 8.77674 6.438 8.627 6.17308L8.53994 6.22229C8.6923 6.49184 8.86887 6.75109 9.08164 6.97568L9.15424 6.90691ZM9.60888 6.17308C9.45915 6.438 9.28716 6.68998 9.08164 6.90691L9.15424 6.97568C9.36701 6.75109 9.54359 6.49184 9.69594 6.22229L9.60888 6.17308ZM9.07022 5.22499C9.18826 5.60273 9.36562 5.934 9.61413 6.22984L9.6907 6.16552C9.4512 5.88041 9.28 5.56103 9.16566 5.19516L9.07022 5.22499ZM8.62175 6.22984C8.8705 5.93372 9.04766 5.59082 9.16553 5.22542L9.07035 5.19472C8.95585 5.5497 8.78443 5.8807 8.54518 6.16552L8.62175 6.22984ZM12.6755 13.4566H11.7809V13.5566H12.6755V13.4566ZM10.0436 8.48127C11.6114 9.61096 12.6255 11.4436 12.6255 13.5066H12.7255C12.7255 11.41 11.6947 9.54776 10.1021 8.40014L10.0436 8.48127ZM9.15746 8.9251C9.44525 8.75243 9.75581 8.60292 10.0892 8.48797L10.0566 8.39343C9.71603 8.51086 9.39918 8.66345 9.10601 8.83935L9.15746 8.9251ZM11.8309 13.5066C11.8309 11.5243 10.7518 9.78889 9.15732 8.83926L9.10615 8.92518C10.6721 9.85783 11.7309 11.5616 11.7309 13.5066H11.8309Z" fill="#142337"/>
</svg>
