<svg width="19" height="17" viewBox="0 0 19 17" fill="none" xmlns="http://www.w3.org/2000/svg">
<path d="M16.2125 16.0524L13.9025 14.9926L9.57781 14.9617L4.83587 13.2022C4.40849 13.0479 4.11339 12.6157 4.08286 12.1013C4.06251 11.7617 4.15409 11.4736 4.34743 11.2678C4.51025 11.0929 4.72394 10.99 4.95798 10.99L9.21148 11.3193V11.2781C9.00796 11.0209 8.99779 10.6402 9.1606 10.3521C9.32341 10.0846 9.58799 9.91992 9.88308 9.91992H13.0681C13.8211 9.91992 14.5436 10.3006 15.0626 10.9694L15.1338 11.0518H16.2226V16.0421L16.2125 16.0524ZM9.84238 13.9637L14.2282 14.0048L15.1949 14.4473V12.0807H14.625L14.2485 11.5971C13.9229 11.1752 13.4955 10.9489 13.0579 10.9489H10.1578L10.7684 12.4614L5.10044 12.019C5.1208 12.163 5.1615 12.2247 5.18185 12.2247L9.84238 13.9534V13.9637Z" fill="#142337"/>
<path d="M8.19237 10.6807L2.70759 10.3514V4.10578H-0.0195312L9.04714 0.0517578L18.1138 4.10578H15.3867V9.22989H12.049V6.22539H11.296V9.22989H8.06008L8.10078 9.4151L8.19237 10.6807ZM3.72518 9.38423L7.0832 9.57973C6.91021 9.25047 6.93056 8.90063 7.13408 8.62282C7.3376 8.35529 7.66322 8.19066 8.0092 8.19066H10.2886V5.18616H13.0768V8.19066H14.3793V3.55015L9.05731 1.1733L3.72518 3.59131V9.38423ZM6.92039 7.02796C6.07579 7.02796 5.39401 6.33857 5.39401 5.48456C5.39401 4.63054 6.07579 3.94115 6.92039 3.94115C7.76498 3.94115 8.44676 4.63054 8.44676 5.48456C8.44676 6.33857 7.76498 7.02796 6.92039 7.02796ZM6.92039 4.97009C6.64564 4.97009 6.41159 5.19645 6.41159 5.48456C6.41159 5.77266 6.63546 5.99902 6.92039 5.99902C7.20531 5.99902 7.42918 5.77266 7.42918 5.48456C7.42918 5.19645 7.20531 4.97009 6.92039 4.97009Z" fill="#142337"/>
</svg>
