<svg width="19" height="19" viewBox="0 0 19 19" fill="none" xmlns="http://www.w3.org/2000/svg">
<g clip-path="url(#clip0_3383_38056)">
<path d="M9.08495 2.5278L13.9836 6.03318H12.8087V10.3483L16.6479 14.0997L17.1829 14.6224L17.9276 15.3501V15.8319H15.9136L14.1514 14.1099L11.7703 11.7832H11.3717V15.8319H10.5325V11.7832H7.45908V15.8319H6.61992V11.7832H5.36118V6.04343H4.18635L9.08495 2.5278ZM9.08495 10.1331C10.1129 10.1331 10.9521 9.31308 10.9521 8.30861C10.9521 7.30414 10.1129 6.48417 9.08495 6.48417C8.05698 6.48417 7.21782 7.30414 7.21782 8.30861C7.21782 9.31308 8.05698 10.1331 9.08495 10.1331ZM9.08495 1.25684L8.46607 1.69757L3.56747 5.20296L0.976562 7.05815H4.31223V12.798H5.57097V16.8466H8.50803V12.798H9.48355V16.8466H12.4206V13.8537L13.4171 14.8274L15.1794 16.5493L15.4836 16.8466H18.9766V14.9196L18.6724 14.6224L17.9276 13.8947L17.3926 13.3719L13.8682 9.92806V7.05815H17.2038L14.6129 5.20296L9.70383 1.69757L9.08495 1.25684ZM9.08495 9.10808C8.6339 9.10808 8.26677 8.74935 8.26677 8.30861C8.26677 7.86787 8.6339 7.50913 9.08495 7.50913C9.536 7.50913 9.90314 7.86787 9.90314 8.30861C9.90314 8.74935 9.536 9.10808 9.08495 9.10808Z" fill="#142337"/>
</g>
<defs>
<clipPath id="clip0_3383_38056">
<rect width="18" height="18" fill="white" transform="translate(0.976562 0.0517578)"/>
</clipPath>
</defs>
</svg>
