<svg width="17" height="16" viewBox="0 0 17 16" fill="none" xmlns="http://www.w3.org/2000/svg">
<path d="M6.46928 7.54587C4.59061 7.54587 3.05859 6.05405 3.05859 4.22467C3.05859 2.39529 4.59061 0.892578 6.46928 0.892578C8.34795 0.892578 9.87996 2.3844 9.87996 4.21378C9.87996 6.04317 8.34795 7.53498 6.46928 7.53498V7.54587ZM6.46928 1.9815C5.20565 1.9815 4.17685 2.9833 4.17685 4.21378C4.17685 5.44426 5.20565 6.44606 6.46928 6.44606C7.73291 6.44606 8.76171 5.44426 8.76171 4.21378C8.76171 2.9833 7.73291 1.9815 6.46928 1.9815Z" fill="#142337"/>
<path d="M12.0508 15.2119H10.9326V11.8907C10.9326 9.49512 8.9309 7.54595 6.47073 7.54595C4.01056 7.54595 2.00888 9.49512 2.00888 11.8907V15.2119H0.890625V11.8907C0.890625 8.89621 3.39552 6.45703 6.47073 6.45703C9.54594 6.45703 12.0508 8.89621 12.0508 11.8907V15.2119Z" fill="#142337"/>
<path d="M16.3131 15.0707H15.1949V9.17968C15.1949 8.22143 14.4009 7.44829 13.4169 7.44829H11.5605V6.35938H13.4169C15.016 6.35938 16.3131 7.62252 16.3131 9.17968V15.0707Z" fill="#142337"/>
</svg>
