<svg width="17" height="17" viewBox="0 0 17 17" fill="none" xmlns="http://www.w3.org/2000/svg">
<path fill-rule="evenodd" clip-rule="evenodd" d="M8.46071 3.05221C7.02615 3.05221 5.65036 3.62208 4.63597 4.63646C3.62159 5.65085 3.05172 7.02664 3.05172 8.4612C3.05172 9.89575 3.62159 11.2715 4.63597 12.2859C5.65036 13.3003 7.02615 13.8702 8.46071 13.8702C9.89526 13.8702 11.2711 13.3003 12.2854 12.2859C13.2998 11.2715 13.8697 9.89575 13.8697 8.4612C13.8697 7.02664 13.2998 5.65085 12.2854 4.63646C11.2711 3.62208 9.89526 3.05221 8.46071 3.05221ZM3.84465 3.84514C5.0689 2.62088 6.72935 1.93311 8.46071 1.93311C10.1921 1.93311 11.8525 2.62088 13.0768 3.84514C14.301 5.06939 14.9888 6.72984 14.9888 8.4612C14.9888 10.1926 14.301 11.853 13.0768 13.0773C11.8525 14.3015 10.1921 14.9893 8.46071 14.9893C6.72935 14.9893 5.06891 14.3015 3.84465 13.0773C2.6204 11.853 1.93262 10.1926 1.93262 8.4612C1.93262 6.72984 2.6204 5.06939 3.84465 3.84514Z" fill="white"/>
<path fill-rule="evenodd" clip-rule="evenodd" d="M8.46059 6.78219C8.01539 6.78219 7.58842 6.95904 7.27361 7.27385C6.9588 7.58866 6.78194 8.01563 6.78194 8.46084C6.78194 8.90605 6.9588 9.33302 7.27361 9.64782C7.58842 9.96263 8.01539 10.1395 8.46059 10.1395C8.9058 10.1395 9.33277 9.96263 9.64758 9.64782C9.96239 9.33302 10.1392 8.90605 10.1392 8.46084C10.1392 8.01563 9.96239 7.58866 9.64758 7.27385C9.33277 6.95904 8.9058 6.78219 8.46059 6.78219ZM6.48228 6.48253C7.00696 5.95785 7.71858 5.66309 8.46059 5.66309C9.2026 5.66309 9.91422 5.95785 10.4389 6.48253C10.9636 7.00721 11.2583 7.71883 11.2583 8.46084C11.2583 9.20285 10.9636 9.91447 10.4389 10.4391C9.91422 10.9638 9.2026 11.2586 8.46059 11.2586C7.71858 11.2586 7.00696 10.9638 6.48228 10.4391C5.9576 9.91447 5.66284 9.20285 5.66284 8.46084C5.66284 7.71883 5.9576 7.00721 6.48228 6.48253Z" fill="white"/>
<path fill-rule="evenodd" clip-rule="evenodd" d="M9.02022 0V2.49214H7.90112V0H9.02022ZM2.49213 9.02023H0V7.90112H2.49213V9.02023ZM16.9213 9.02023H14.4292V7.90112H16.9213V9.02023ZM9.02022 14.4292V16.9213H7.90112V14.4292H9.02022Z" fill="white"/>
</svg>
