<svg width="17" height="17" viewBox="0 0 17 17" fill="none" xmlns="http://www.w3.org/2000/svg">
<g clip-path="url(#clip0_2579_11583)">
<path d="M7.07 17H0V0H7.07V17ZM1 16H6.07V1H1V16Z" fill="white"/>
<path d="M12.4081 16.9999H6.07812V6.66992H12.4081V16.9999ZM7.07812 15.9999H11.4081V7.66992H7.07812V15.9999Z" fill="white"/>
<path d="M17.0002 17.0002H11.4102V3.41016H17.0002V17.0002ZM12.4102 16.0002H16.0002V4.41016H12.4102V16.0002Z" fill="white"/>
<path d="M4.03906 2.75977H3.03906V4.19977H4.03906V2.75977Z" fill="white"/>
<path d="M4.03906 6.12988H3.03906V7.56988H4.03906V6.12988Z" fill="white"/>
<path d="M4.03906 9.5H3.03906V10.94H4.03906V9.5Z" fill="white"/>
<path d="M9.73828 9.5H8.73828V10.94H9.73828V9.5Z" fill="white"/>
<path d="M9.73828 12.8701H8.73828V14.3101H9.73828V12.8701Z" fill="white"/>
<path d="M4.03906 12.8701H3.03906V14.3101H4.03906V12.8701Z" fill="white"/>
<path d="M14.6992 6.12988H13.6992V7.56988H14.6992V6.12988Z" fill="white"/>
<path d="M14.6992 9.5H13.6992V10.94H14.6992V9.5Z" fill="white"/>
<path d="M14.6992 12.8701H13.6992V14.3101H14.6992V12.8701Z" fill="white"/>
</g>
<defs>
<clipPath id="clip0_2579_11583">
<rect width="17" height="17" fill="white"/>
</clipPath>
</defs>
</svg>
