<svg width="17" height="17" viewBox="0 0 17 17" fill="none" xmlns="http://www.w3.org/2000/svg">
<path d="M7.42902 16.3034H0.773438V0.303711H7.42902V16.3034ZM1.71482 15.3623H6.48764V1.24487H1.71482V15.3623Z" fill="white"/>
<path d="M12.4551 16.3032H6.49609V6.58105H12.4551V16.3032ZM7.43748 15.3621H11.5137V7.52222H7.43748V15.3621Z" fill="white"/>
<path d="M16.7721 16.3031H11.5098V3.5127H16.7721V16.3031ZM12.4511 15.3619H15.8307V4.45386H12.4511V15.3619Z" fill="white"/>
<path d="M4.57615 2.90039H3.63477V4.25566H4.57615V2.90039Z" fill="white"/>
<path d="M4.57615 6.07324H3.63477V7.42851H4.57615V6.07324Z" fill="white"/>
<path d="M4.57615 9.24512H3.63477V10.6004H4.57615V9.24512Z" fill="white"/>
<path d="M9.93552 9.24512H8.99414V10.6004H9.93552V9.24512Z" fill="white"/>
<path d="M9.93552 12.417H8.99414V13.7723H9.93552V12.417Z" fill="white"/>
<path d="M4.57615 12.417H3.63477V13.7723H4.57615V12.417Z" fill="white"/>
<path d="M14.6152 6.07324H13.6738V7.42851H14.6152V6.07324Z" fill="white"/>
<path d="M14.6152 9.24512H13.6738V10.6004H14.6152V9.24512Z" fill="white"/>
<path d="M14.6152 12.417H13.6738V13.7723H14.6152V12.417Z" fill="white"/>
</svg>
