<svg width="8" height="20" viewBox="0 0 8 20" fill="none" xmlns="http://www.w3.org/2000/svg">
<g clip-path="url(#clip0_2549_9587)">
<path d="M7.47042 8.14941H0.529577C0.2371 8.14941 0 8.38399 0 8.67336C0 8.96272 0.2371 9.1973 0.529577 9.1973H7.47042C7.7629 9.1973 8 8.96272 8 8.67336C8 8.38399 7.7629 8.14941 7.47042 8.14941Z" fill="#142337"/>
<path d="M6.36788 5.59155H4.92563V3.92394C4.92563 3.4169 4.50873 3 4.00168 3C3.49464 3 3.07774 3.4169 3.07774 3.92394V5.59155H1.63549C1.18478 5.59155 0.824219 5.95211 0.824219 6.40282V7.72113H7.17915V6.40282C7.17915 5.95211 6.81859 5.59155 6.36788 5.59155Z" fill="#142337"/>
<path d="M5.22985 14.5382V13.7269H7.17915V13.0734H5.22985V12.2621H7.17915V11.6086H5.22985V10.7973H7.17915V9.62549H0.824219V16.7692C0.824219 17.2199 1.18478 17.5804 1.63549 17.5804H6.36788C6.81859 17.5804 7.17915 17.2199 7.17915 16.7692V14.5269H5.22985V14.5382Z" fill="#142337"/>
</g>
<defs>
<clipPath id="clip0_2549_9587">
<rect width="8" height="14.5803" fill="white" transform="translate(0 3)"/>
</clipPath>
</defs>
</svg>
