<svg width="15" height="16" viewBox="0 0 15 16" fill="none" xmlns="http://www.w3.org/2000/svg">
<path d="M10.1706 15.1431H4.64062V0.163086H10.1706V15.1431ZM5.64062 14.1431H9.17063V1.16309H5.64062V14.1431Z" fill="white"/>
<path d="M14.3862 0.163086H0.40625V1.16309H14.3862V0.163086Z" fill="white"/>
<path d="M14.3862 14.1436H0.40625V15.1436H14.3862V14.1436Z" fill="white"/>
<path d="M9.39207 0.324568L4.85938 3.24121L5.4005 4.08216L9.93319 1.16551L9.39207 0.324568Z" fill="white"/>
<path d="M9.39988 3.15465L4.86719 6.07129L5.40831 6.91223L9.941 3.99559L9.39988 3.15465Z" fill="white"/>
<path d="M9.39207 5.76793L4.85938 8.68457L5.4005 9.52551L9.93319 6.60887L9.39207 5.76793Z" fill="white"/>
<path d="M9.39207 8.42613L4.85938 11.3428L5.4005 12.1837L9.93319 9.26707L9.39207 8.42613Z" fill="white"/>
<path d="M9.39207 11.307L4.85938 14.2236L5.4005 15.0646L9.93319 12.1479L9.39207 11.307Z" fill="white"/>
</svg>
