<svg width="19" height="23" viewBox="0 0 19 23" fill="none" xmlns="http://www.w3.org/2000/svg">
<g clip-path="url(#clip0_3081_23886)">
<path d="M5.99555 17.642C6.47494 17.9188 7.0851 17.7594 7.35838 17.2861C7.63167 16.8128 7.46459 16.2047 6.9852 15.9279C6.50581 15.6511 5.89565 15.8105 5.62236 16.2838C5.34908 16.7572 5.51616 17.3652 5.99555 17.642Z" fill="white"/>
<path d="M4.71841 19.8512C3.00168 18.86 2.40043 16.6718 3.37908 14.9768C3.95087 13.9864 4.94027 13.3641 6.07615 13.2454L9.0066 8.16967C8.21897 6.83883 8.18559 5.18162 8.95531 3.84842C9.72503 2.51522 11.0957 1.74483 12.6489 1.72737L13.6142 1.72599L12.0912 4.36382L12.7249 5.9613L14.4403 5.70739L15.9578 3.07908L16.4337 3.92523C17.2007 5.26955 17.2079 6.86082 16.4491 8.17498C15.6904 9.48913 14.222 10.3174 12.6812 10.2912L9.75072 15.3669C10.2158 16.4099 10.1661 17.5875 9.59981 18.5683C8.62116 20.2634 6.42549 20.8368 4.70876 19.8456L4.71841 19.8512ZM11.5927 3.02216C10.8976 3.26839 10.2991 3.74817 9.91976 4.40525C9.30399 5.47181 9.37423 6.82017 10.1092 7.84128L10.3174 8.12656L6.74371 14.3164L6.42977 14.3256C5.54852 14.3374 4.77238 14.7908 4.34353 15.5336C3.66728 16.7049 4.08193 18.214 5.26821 18.8989C6.45449 19.5838 7.96875 19.1884 8.645 18.017C9.07385 17.2743 9.07843 16.3754 8.64802 15.6063L8.49902 15.3298L12.0727 9.13999L12.4239 9.17767C13.6757 9.30363 14.8785 8.69028 15.4943 7.62372C15.8737 6.96664 15.9941 6.22354 15.8598 5.49844L15.145 6.73641L12.0253 7.19532L10.8725 4.26966L11.5982 3.01264L11.5927 3.02216Z" fill="white"/>
</g>
<defs>
<clipPath id="clip0_3081_23886">
<rect width="8.66425" height="20.1448" fill="white" transform="translate(11.0391 0.239258) rotate(30)"/>
</clipPath>
</defs>
</svg>
