<svg width="16" height="16" viewBox="0 0 16 16" fill="none" xmlns="http://www.w3.org/2000/svg">
<g clip-path="url(#clip0_3081_23880)">
<path d="M14.6087 7.94191H9.14769C8.38161 7.94191 7.75781 7.33993 7.75781 6.60066V1.34125C7.75781 0.60198 8.38161 0 9.14769 0H14.6087C15.3748 0 15.9986 0.60198 15.9986 1.34125V6.61122C15.9986 7.3505 15.3748 7.95248 14.6087 7.95248V7.94191ZM9.14769 1.05611C8.98353 1.05611 8.8522 1.18284 8.8522 1.34125V6.61122C8.8522 6.76964 8.98353 6.89637 9.14769 6.89637H14.6087C14.7729 6.89637 14.9042 6.76964 14.9042 6.61122V1.34125C14.9042 1.18284 14.7729 1.05611 14.6087 1.05611H9.14769Z" fill="white"/>
<path d="M14.6101 16.0001H1.38988C0.623803 16.0001 0 15.3981 0 14.6588V11.311C0 10.5717 0.623803 9.96973 1.38988 9.96973H14.6101C15.3762 9.96973 16 10.5717 16 11.311V14.6588C16 15.3981 15.3762 16.0001 14.6101 16.0001ZM1.38988 11.0258C1.22572 11.0258 1.09439 11.1526 1.09439 11.311V14.6588C1.09439 14.8173 1.22572 14.944 1.38988 14.944H14.6101C14.7743 14.944 14.9056 14.8173 14.9056 14.6588V11.311C14.9056 11.1526 14.7743 11.0258 14.6101 11.0258H1.38988Z" fill="white"/>
<path d="M5.95317 0.210938H0.546875V1.26704H5.95317V0.210938Z" fill="white"/>
<path d="M5.95317 3.44336H0.546875V4.49947H5.95317V3.44336Z" fill="white"/>
<path d="M5.95317 6.66406H0.546875V7.72017H5.95317V6.66406Z" fill="white"/>
</g>
<defs>
<clipPath id="clip0_3081_23880">
<rect width="16" height="16" fill="white"/>
</clipPath>
</defs>
</svg>
