<svg width="16" height="14" viewBox="0 0 16 14" fill="none" xmlns="http://www.w3.org/2000/svg">
<path d="M1.11597 6.11584C0.882212 6.35065 0.750977 6.6685 0.750977 6.99984C0.750977 7.33117 0.882212 7.64902 1.11597 7.88383L6.11597 12.8838C6.23206 12.9999 6.36988 13.092 6.52155 13.1548C6.67323 13.2177 6.8358 13.25 6.99997 13.25C7.33154 13.25 7.64952 13.1183 7.88397 12.8838C8.11842 12.6494 8.25014 12.3314 8.25014 11.9998C8.25014 11.6683 8.11842 11.3503 7.88397 11.1158L5.01797 8.24984H14C14.3315 8.24984 14.6494 8.11814 14.8839 7.88372C15.1183 7.6493 15.25 7.33136 15.25 6.99984C15.25 6.66831 15.1183 6.35037 14.8839 6.11595C14.6494 5.88153 14.3315 5.74984 14 5.74984L5.01797 5.74984L7.88397 2.88384C8.00006 2.76775 8.09215 2.62993 8.15497 2.47825C8.2178 2.32657 8.25014 2.16401 8.25014 1.99984C8.25014 1.83566 8.2178 1.6731 8.15497 1.52142C8.09215 1.36974 8.00006 1.23192 7.88397 1.11583C7.76788 0.999746 7.63007 0.907659 7.47839 0.844832C7.32671 0.782006 7.16415 0.749671 6.99997 0.749671C6.8358 0.749671 6.67323 0.782006 6.52155 0.844832C6.36988 0.907659 6.23206 0.999746 6.11597 1.11583L1.11597 6.11584Z" fill="white"/>
</svg>
