<svg width="19" height="18" viewBox="0 0 19 18" fill="none" xmlns="http://www.w3.org/2000/svg">
<path d="M16.2344 2.95093H2.23438V4.00564H16.2344V2.95093Z" fill="white"/>
<path d="M14.1792 17.0002H4.28906V5.72534H5.38796V15.9455H13.0803V5.72534H14.1792V17.0002Z" fill="white"/>
<path d="M13.0182 3.47833H11.9193V2.18103C11.9193 2.1072 11.8534 2.05447 11.7874 2.05447H6.69952C6.6226 2.05447 6.56765 2.11775 6.56765 2.18103V3.47833H5.46875V2.18103C5.46875 1.52711 6.0182 0.999756 6.69952 0.999756H11.7874C12.4687 0.999756 13.0182 1.52711 13.0182 2.18103V3.47833Z" fill="white"/>
<path d="M7.98953 5.72534H6.89062V12.9923H7.98953V5.72534Z" fill="white"/>
<path d="M11.7366 5.72534H10.6377V12.9923H11.7366V5.72534Z" fill="white"/>
</svg>
