<svg width="19" height="18" viewBox="0 0 19 18" fill="none" xmlns="http://www.w3.org/2000/svg">
<path d="M13.6564 5.59219H5.32129V1.29102H13.6452V5.59219H13.6564ZM6.45128 4.61687H12.5376V2.26634H6.44009V4.61687H6.45128Z" fill="white"/>
<path d="M13.9738 16.7099H4.38567C3.69201 16.7099 3.07667 16.3978 2.72984 15.8711C2.38301 15.3444 2.3942 14.7202 2.75222 14.2033L7.09317 7.85395V6.27393H12.0271V8.05877L13.9738 16.7099ZM8.22316 7.24925V8.12704L3.71439 14.7105C3.56894 14.925 3.56894 15.1786 3.71439 15.3932C3.85983 15.6078 4.10597 15.7346 4.39685 15.7346H12.62L10.9307 8.1563V7.24925H8.22316Z" fill="white"/>
<path d="M12.0316 7.25056H7.09766V4.61719H12.0316V7.25056ZM8.21646 6.27524H10.9128V5.59251H8.21646V6.27524Z" fill="white"/>
<path d="M15.9932 4.89985H12.5361V1.97388H15.9932V4.89985ZM13.6549 3.92452H14.8744V2.9492H13.6549V3.92452Z" fill="white"/>
</svg>
