<svg width="19" height="19" viewBox="0 0 19 19" fill="none" xmlns="http://www.w3.org/2000/svg">
<g clip-path="url(#clip0_3583_5727)">
<path d="M17.1481 13.0737H15.0053V12.5822C15.0053 11.9138 14.4647 11.3732 13.7963 11.3732C13.1279 11.3732 12.5873 11.9138 12.5873 12.5822V13.0737H6.61107V12.5822C6.61107 11.9138 6.07046 11.3732 5.40206 11.3732C4.73367 11.3732 4.19305 11.9138 4.19305 12.5822V13.0737H2.08957C1.28357 13.0737 0.625 12.4151 0.625 11.6091V9.85951C0.625 9.12231 1.17544 8.50306 1.90282 8.40477L5.08752 7.99193L6.31619 5.12177C6.5521 4.58115 7.07305 4.22729 7.66281 4.22729H12.6463C13.3638 4.22729 13.9733 4.73842 14.0912 5.44613L14.622 7.75603L16.7844 8.05091C17.3545 8.15903 17.787 8.55221 17.9443 9.08299L18.5832 11.2651C18.6913 11.7074 18.5832 12.1596 18.308 12.5134C18.0328 12.8673 17.6101 13.0737 17.158 13.0737H17.1481ZM15.9293 12.0908H17.1481C17.2956 12.0908 17.4332 12.022 17.5315 11.904C17.6199 11.7861 17.6593 11.6485 17.6298 11.501L17.0007 9.35821C16.9515 9.18129 16.8041 9.0535 16.6272 9.01419L13.8062 8.64067L13.1279 5.64272C13.0788 5.38716 12.8822 5.22006 12.6463 5.22006H7.66281C7.46623 5.22006 7.2893 5.33801 7.22049 5.51494L5.77558 8.90606L2.0306 9.3877C1.79469 9.41719 1.60793 9.62361 1.60793 9.86934V11.619C1.60793 11.8844 1.82418 12.1006 2.08957 12.1006H3.27892C3.505 11.1275 4.36998 10.4001 5.41189 10.4001C6.4538 10.4001 7.31879 11.1275 7.54486 12.1006H11.6634C11.8894 11.1275 12.7544 10.4001 13.7963 10.4001C14.8382 10.4001 15.7032 11.1275 15.9293 12.1006V12.0908Z" fill="white"/>
<path d="M5.41265 14.7738C4.20364 14.7738 3.2207 13.7908 3.2207 12.5818C3.2207 11.3728 4.20364 10.3899 5.41265 10.3899C6.62166 10.3899 7.60459 11.3728 7.60459 12.5818C7.60459 13.7908 6.62166 14.7738 5.41265 14.7738ZM5.41265 11.3827C4.74425 11.3827 4.20364 11.9233 4.20364 12.5917C4.20364 13.2601 4.74425 13.8007 5.41265 13.8007C6.08104 13.8007 6.62166 13.2601 6.62166 12.5917C6.62166 11.9233 6.08104 11.3827 5.41265 11.3827Z" fill="white"/>
<path d="M13.8062 14.7738C12.5972 14.7738 11.6143 13.7908 11.6143 12.5818C11.6143 11.3728 12.5972 10.3899 13.8062 10.3899C15.0152 10.3899 15.9981 11.3728 15.9981 12.5818C15.9981 13.7908 15.0152 14.7738 13.8062 14.7738ZM13.8062 11.3827C13.1378 11.3827 12.5972 11.9233 12.5972 12.5917C12.5972 13.2601 13.1378 13.8007 13.8062 13.8007C14.4746 13.8007 15.0152 13.2601 15.0152 12.5917C15.0152 11.9233 14.4746 11.3827 13.8062 11.3827Z" fill="white"/>
<path d="M10.8822 6.2518L9.03433 8.66982L8.7886 8.19801L10.4792 8.30613L10.8528 8.32579C10.8036 8.38476 8.89672 10.9404 8.79843 11.0878L10.322 8.39459L10.4891 8.6993L8.79843 8.80743L8.25781 8.83691L8.55269 8.33562L10.0861 5.71118L10.9019 6.26163L10.8822 6.2518Z" fill="white"/>
</g>
<defs>
<clipPath id="clip0_3583_5727">
<rect width="18" height="18" fill="white" transform="translate(0.625 0.5)"/>
</clipPath>
</defs>
</svg>
