<svg width="12" height="12" viewBox="0 0 12 12" fill="none" xmlns="http://www.w3.org/2000/svg">
<circle cx="5.78076" cy="5.78076" r="5.28076" fill="#142337" stroke="white"/>
<path d="M5.14062 7.11035C5.14355 6.74121 5.18018 6.44238 5.25049 6.21387C5.32373 5.98242 5.4248 5.79785 5.55371 5.66016C5.68262 5.51953 5.85547 5.38184 6.07227 5.24707C6.50586 4.97754 6.72266 4.64062 6.72266 4.23633C6.72266 4.05762 6.68018 3.90088 6.59521 3.76611C6.51318 3.62842 6.39893 3.52295 6.25244 3.44971C6.10889 3.37646 5.94922 3.33984 5.77344 3.33984C5.60938 3.33984 5.45557 3.375 5.31201 3.44531C5.16846 3.5127 5.0498 3.6167 4.95605 3.75732C4.86523 3.89795 4.8125 4.07227 4.79785 4.28027H3.84863C3.86035 3.91992 3.95117 3.60937 4.12109 3.34863C4.29395 3.08496 4.52393 2.88574 4.81104 2.75098C5.09814 2.61621 5.41895 2.54883 5.77344 2.54883C6.14844 2.54883 6.47949 2.62061 6.7666 2.76416C7.05664 2.90479 7.28076 3.10254 7.43896 3.35742C7.6001 3.6123 7.68066 3.90527 7.68066 4.23633C7.68066 4.57617 7.60449 4.87061 7.45215 5.11963C7.2998 5.36572 7.07715 5.57812 6.78418 5.75684C6.60254 5.86523 6.45898 5.97803 6.35352 6.09521C6.25098 6.2124 6.17334 6.35156 6.12061 6.5127C6.0708 6.67383 6.04297 6.87305 6.03711 7.11035V7.16309H5.14062V7.11035ZM5.62402 9.06152C5.5127 9.06152 5.40723 9.03369 5.30762 8.97803C5.21094 8.92236 5.13477 8.84619 5.0791 8.74951C5.02344 8.65283 4.99707 8.54883 5 8.4375C4.99707 8.32617 5.02344 8.22217 5.0791 8.12549C5.13477 8.02881 5.21094 7.95264 5.30762 7.89697C5.40723 7.84131 5.5127 7.81348 5.62402 7.81348C5.73242 7.81348 5.83496 7.84131 5.93164 7.89697C6.02832 7.95264 6.10449 8.02881 6.16016 8.12549C6.21875 8.22217 6.24805 8.32617 6.24805 8.4375C6.24805 8.54883 6.21875 8.65283 6.16016 8.74951C6.10449 8.84619 6.02832 8.92236 5.93164 8.97803C5.83496 9.03369 5.73242 9.06152 5.62402 9.06152Z" fill="white"/>
</svg>
