<svg width="19" height="18" viewBox="0 0 19 18" fill="none" xmlns="http://www.w3.org/2000/svg">
<g clip-path="url(#clip0_3583_7627)">
<path d="M6.09485 13.7186L0.233398 8.3436L2.78034 6.00806L8.64179 11.383L6.09485 13.7186ZM1.46326 8.3436L6.09485 12.5908L7.41193 11.383L2.78034 7.13584L1.46326 8.3436Z" fill="white"/>
<path d="M12.3547 8.21684H9.59844C9.35421 8.21684 9.16232 8.04087 9.16232 7.81692C9.16232 7.59296 9.35421 7.417 9.59844 7.417H12.2849V6.83311C12.2849 6.74513 12.2064 6.67314 12.1105 6.67314H9.74672C9.63333 6.67314 9.51994 6.63315 9.44144 6.55316L8.81343 5.97728H5.48147L3.80677 7.51298C3.63232 7.67295 3.36192 7.67295 3.18748 7.51298C3.01303 7.35301 3.01303 7.10506 3.18748 6.94509L4.99301 5.28941C5.07152 5.21742 5.18491 5.16943 5.2983 5.16943H8.9966C9.10999 5.16943 9.22338 5.20943 9.30188 5.28941L9.92989 5.8653H12.1105C12.6862 5.8653 13.1572 6.29721 13.1572 6.82511V7.46499C13.1572 7.87291 12.7908 8.20884 12.346 8.20884L12.3547 8.21684Z" fill="white"/>
<path d="M13.1868 11.0872H7.27303C7.02881 11.0872 6.83691 10.9112 6.83691 10.6873C6.83691 10.4633 7.02881 10.2873 7.27303 10.2873H13.1868C13.6491 10.2873 14.0852 10.0794 14.3556 9.72746L17.2602 5.9282C17.391 5.76023 17.3997 5.55227 17.3038 5.36831C17.1119 5.02437 16.5624 5.03237 16.292 5.21634L13.0037 7.52788C12.8118 7.66386 12.5414 7.63186 12.3931 7.4559C12.2448 7.27993 12.2797 7.03198 12.4716 6.89601L15.7599 4.58446C16.039 4.3845 16.3879 4.28052 16.7368 4.28052C17.3212 4.28052 17.8184 4.56046 18.0714 5.00038C18.3243 5.44829 18.2807 5.97619 17.9667 6.38411L15.0621 10.1834C14.6347 10.7433 13.9282 11.0792 13.1781 11.0792L13.1868 11.0872Z" fill="white"/>
</g>
<defs>
<clipPath id="clip0_3583_7627">
<rect width="18" height="18" fill="white" transform="translate(0.234375)"/>
</clipPath>
</defs>
</svg>
