<svg width="19" height="18" viewBox="0 0 19 18" fill="none" xmlns="http://www.w3.org/2000/svg">
<path d="M9.62187 10.2633C7.30217 10.2633 5.42188 8.30171 5.42188 5.88166C5.42188 3.46162 7.30217 1.5 9.62187 1.5C11.9416 1.5 13.8219 3.46162 13.8219 5.88166C13.8219 8.30171 11.9416 10.2633 9.62187 10.2633ZM9.62187 2.5661C7.86421 2.5661 6.44377 4.05864 6.44377 5.88166C6.44377 7.70469 7.87443 9.19723 9.62187 9.19723C11.3693 9.19723 12.8 7.70469 12.8 5.88166C12.8 4.05864 11.3693 2.5661 9.62187 2.5661Z" fill="white"/>
<path d="M16.625 16.5H15.6031C15.6031 13.0672 12.9257 10.2634 9.625 10.2634C6.32427 10.2634 3.6469 13.0672 3.6469 16.5H2.625C2.625 12.4702 5.76223 9.19727 9.625 9.19727C13.4878 9.19727 16.625 12.4702 16.625 16.5Z" fill="white"/>
</svg>
