<svg width="19" height="18" viewBox="0 0 19 18" fill="none" xmlns="http://www.w3.org/2000/svg">
<g clip-path="url(#clip0_3583_5722)">
<path d="M17.1485 12.5734H15.0057V12.082C15.0057 11.4135 14.4651 10.8729 13.7966 10.8729C13.1282 10.8729 12.5876 11.4135 12.5876 12.082V12.5734H6.61122V12.082C6.61122 11.4135 6.07059 10.8729 5.40218 10.8729C4.73377 10.8729 4.19314 11.4135 4.19314 12.082V12.5734H2.08961C1.28358 12.5734 0.625 11.9149 0.625 11.1088V9.35916C0.625 8.62194 1.17546 8.00268 1.90285 7.90438L5.08763 7.49154L6.31633 4.6213C6.55224 4.08067 7.07321 3.72681 7.66298 3.72681H12.6466C13.3641 3.72681 13.9736 4.23794 14.0915 4.94568L14.6223 7.25563L16.7848 7.55051C17.355 7.65864 17.7875 8.05182 17.9447 8.58262L18.5837 10.7648C18.6918 11.2071 18.5836 11.6593 18.3084 12.0131C18.0332 12.367 17.6105 12.5734 17.1584 12.5734H17.1485ZM15.9297 11.5905H17.1485C17.296 11.5905 17.4336 11.5217 17.5319 11.4037C17.6204 11.2858 17.6597 11.1481 17.6302 11.0007L17.0011 8.85785C16.9519 8.68092 16.8045 8.55313 16.6276 8.51381L13.8163 8.14029L13.1381 5.14227C13.0889 4.8867 12.8923 4.71959 12.6564 4.71959H7.67281C7.47622 4.71959 7.29929 4.83755 7.23048 5.01448L5.78553 8.40569L2.04046 8.88734C1.80455 8.91683 1.61779 9.12325 1.61779 9.36899V11.1187C1.61779 11.3841 1.83404 11.6003 2.09944 11.6003H3.28882C3.5149 10.6272 4.3799 9.89979 5.42184 9.89979C6.46377 9.89979 7.32878 10.6272 7.55486 11.6003H11.6735C11.8995 10.6272 12.7645 9.89979 13.8065 9.89979C14.8484 9.89979 15.7134 10.6272 15.9395 11.6003L15.9297 11.5905Z" fill="white"/>
<path d="M5.4127 14.2734C4.20366 14.2734 3.2207 13.2904 3.2207 12.0814C3.2207 10.8724 4.20366 9.8894 5.4127 9.8894C6.62174 9.8894 7.6047 10.8724 7.6047 12.0814C7.6047 13.2904 6.62174 14.2734 5.4127 14.2734ZM5.4127 10.8822C4.74429 10.8822 4.20366 11.4228 4.20366 12.0912C4.20366 12.7596 4.74429 13.3003 5.4127 13.3003C6.08111 13.3003 6.62174 12.7596 6.62174 12.0912C6.62174 11.4228 6.08111 10.8822 5.4127 10.8822Z" fill="white"/>
<path d="M13.8063 14.2734C12.5972 14.2734 11.6143 13.2904 11.6143 12.0814C11.6143 10.8724 12.5972 9.8894 13.8063 9.8894C15.0153 9.8894 15.9983 10.8724 15.9983 12.0814C15.9983 13.2904 15.0153 14.2734 13.8063 14.2734ZM13.8063 10.8822C13.1378 10.8822 12.5972 11.4228 12.5972 12.0912C12.5972 12.7596 13.1378 13.3003 13.8063 13.3003C14.4747 13.3003 15.0153 12.7596 15.0153 12.0912C15.0153 11.4228 14.4747 10.8822 13.8063 10.8822Z" fill="white"/>
</g>
<defs>
<clipPath id="clip0_3583_5722">
<rect width="18" height="18" fill="white" transform="translate(0.625)"/>
</clipPath>
</defs>
</svg>
