<svg width="19" height="18" viewBox="0 0 19 18" fill="none" xmlns="http://www.w3.org/2000/svg">
<path d="M9.24237 17.5002L9.08937 17.4578C8.79429 17.3729 1.82161 15.3142 1.2533 3.88539L1.23145 3.50337L9.24237 0.500244L17.2424 3.50337L17.2205 3.88539C16.6522 15.3036 9.67953 17.3729 9.38445 17.4578L9.23144 17.5002H9.24237ZM2.37899 4.21435C2.98008 13.7331 8.25877 16.0358 9.2533 16.386C10.2478 16.0358 15.5156 13.7331 16.1276 4.21435L9.24237 1.6357L2.37899 4.21435Z" fill="white"/>
<path d="M9.23845 9.75388C7.56632 9.75388 6.2002 8.42742 6.2002 6.80382C6.2002 5.18023 7.56632 3.85376 9.23845 3.85376C10.9106 3.85376 12.2767 5.18023 12.2767 6.80382C12.2767 8.42742 10.9106 9.75388 9.23845 9.75388ZM9.23845 4.92554C8.16741 4.92554 7.29309 5.77448 7.29309 6.81443C7.29309 7.85438 8.16741 8.70332 9.23845 8.70332C10.3095 8.70332 11.1838 7.85438 11.1838 6.81443C11.1838 5.77448 10.3095 4.92554 9.23845 4.92554Z" fill="white"/>
<path d="M14.1534 13.4679H13.0606C13.0606 11.4198 11.3447 9.7538 9.23542 9.7538C7.12613 9.7538 5.41028 11.4198 5.41028 13.4679H4.31738C4.31738 10.8362 6.52503 8.69263 9.23542 8.69263C11.9458 8.69263 14.1534 10.8362 14.1534 13.4679Z" fill="white"/>
</svg>
