<svg width="18" height="17" viewBox="0 0 18 17" fill="none" xmlns="http://www.w3.org/2000/svg">
<g clip-path="url(#clip0_3583_5025)">
<path d="M7.42156 17H0.351562V0H7.42156V17ZM1.35156 16H6.42156V1H1.35156V16Z" fill="white"/>
<path d="M12.7597 16.9999H6.42969V6.66992H12.7597V16.9999ZM7.42969 15.9999H11.7597V7.66992H7.42969V15.9999Z" fill="white"/>
<path d="M17.3517 16.9999H11.7617V3.40991H17.3517V16.9999ZM12.7617 15.9999H16.3517V4.40991H12.7617V15.9999Z" fill="white"/>
<path d="M4.39062 2.75977H3.39062V4.19977H4.39062V2.75977Z" fill="white"/>
<path d="M4.39062 6.12988H3.39062V7.56988H4.39062V6.12988Z" fill="white"/>
<path d="M4.39062 9.5H3.39062V10.94H4.39062V9.5Z" fill="white"/>
<path d="M10.0898 9.5H9.08984V10.94H10.0898V9.5Z" fill="white"/>
<path d="M10.0898 12.8701H9.08984V14.3101H10.0898V12.8701Z" fill="white"/>
<path d="M4.39062 12.8701H3.39062V14.3101H4.39062V12.8701Z" fill="white"/>
<path d="M15.0508 6.12988H14.0508V7.56988H15.0508V6.12988Z" fill="white"/>
<path d="M15.0508 9.5H14.0508V10.94H15.0508V9.5Z" fill="white"/>
<path d="M15.0508 12.8701H14.0508V14.3101H15.0508V12.8701Z" fill="white"/>
</g>
<defs>
<clipPath id="clip0_3583_5025">
<rect width="17" height="17" fill="white" transform="translate(0.351562)"/>
</clipPath>
</defs>
</svg>
