<svg width="16" height="16" viewBox="0 0 16 16" fill="none" xmlns="http://www.w3.org/2000/svg">
<path d="M2.20312 10.0414L0.453125 5.36141L2.91313 4.44141L4.66313 9.12141L2.20312 10.0414ZM1.74312 5.95141L2.79312 8.76141L3.38313 8.54141L2.33312 5.73141L1.74312 5.95141Z" fill="white"/>
<path d="M3.91594 9.93145L1.83594 4.37145L12.9359 0.231445L15.0159 5.79145L3.91594 9.93145ZM3.12594 4.95145L4.50594 8.64145L13.7259 5.20145L12.3459 1.51145L3.12594 4.96145V4.95145Z" fill="white"/>
<path d="M8.19539 10.4915C7.72539 10.4915 7.28539 10.2015 7.11539 9.74148L6.83539 9.00148C6.72539 8.71148 6.73539 8.40148 6.86539 8.12148C6.99539 7.84148 7.22539 7.63148 7.51539 7.52148L10.6954 6.33148C10.9854 6.22148 11.2954 6.23148 11.5754 6.36148C11.8554 6.49148 12.0654 6.72148 12.1754 7.00148L12.4554 7.74148C12.5654 8.03148 12.5554 8.34148 12.4254 8.62148C12.2954 8.90148 12.0654 9.11148 11.7754 9.22148L8.59539 10.4115C8.46539 10.4615 8.32539 10.4815 8.19539 10.4815V10.4915ZM11.0854 7.26148C11.0854 7.26148 11.0554 7.26148 11.0454 7.26148L7.86539 8.45148C7.81539 8.47148 7.78539 8.51148 7.78539 8.53148C7.77539 8.56148 7.76539 8.60148 7.78539 8.64148L8.06539 9.38148C8.08539 9.45148 8.18539 9.49148 8.25539 9.47148L11.4354 8.28148C11.4354 8.28148 11.5054 8.23148 11.5154 8.20148C11.5254 8.17148 11.5354 8.13148 11.5154 8.09148L11.2354 7.35148C11.2154 7.30148 11.1454 7.25148 11.0854 7.25148V7.26148Z" fill="white"/>
<path d="M14.9467 15.8014H4.87671C4.23671 15.8014 3.70671 15.3814 3.55671 14.7514C3.40671 14.1214 3.69671 13.5114 4.27671 13.2314L9.87671 10.4514C9.87671 10.4514 9.92671 10.3914 9.91671 10.3514L9.59671 9.52137L10.5267 9.15137L10.8467 9.98137C11.0567 10.5114 10.8267 11.0914 10.3167 11.3414L4.71671 14.1214C4.48671 14.2414 4.51671 14.4614 4.52671 14.5214C4.53671 14.5814 4.60671 14.7914 4.87671 14.7914H14.9467V15.7914V15.8014Z" fill="white"/>
</svg>
