<svg width="18" height="14" viewBox="0 0 18 14" fill="none" xmlns="http://www.w3.org/2000/svg">
<path d="M3.15175 10.5761C3.02647 10.5761 2.90118 10.5272 2.81445 10.4296C2.62171 10.2343 2.62171 9.93153 2.81445 9.73623L4.25039 8.28116C4.55878 7.9589 4.55878 7.45109 4.25039 7.12883L2.99756 5.85931C2.31331 5.16596 2.31331 4.0234 2.99756 3.33004L4.21184 2.09959C4.52023 1.77733 4.52023 1.26952 4.21184 0.947257C4.0191 0.751946 4.0191 0.449215 4.21184 0.253905C4.40459 0.0585943 4.70334 0.0585943 4.89608 0.253905C5.58032 0.947257 5.58032 2.08982 4.89608 2.78317L3.6818 4.01363C3.37341 4.33589 3.37341 4.8437 3.6818 5.16596L4.93463 6.43548C5.61887 7.12883 5.61887 8.2714 4.93463 8.96475L3.49869 10.4198C3.40232 10.5175 3.27703 10.5663 3.16139 10.5663L3.15175 10.5761Z" fill="white"/>
<path d="M8.40357 10.5761C8.27829 10.5761 8.15301 10.5272 8.06627 10.4296C7.87353 10.2343 7.87353 9.93153 8.06627 9.73622L9.49258 8.28116C9.8106 7.9589 9.8106 7.45109 9.49258 7.12883L8.23974 5.85931C7.5555 5.16596 7.5555 4.02339 8.23974 3.33004L9.45403 2.09959C9.60822 1.94334 9.68532 1.73826 9.68532 1.52342C9.68532 1.30858 9.59859 1.1035 9.45403 0.947256C9.26128 0.751946 9.26128 0.449215 9.45403 0.253905C9.64677 0.0585943 9.94552 0.0585943 10.1383 0.253905C10.4756 0.595698 10.6587 1.04491 10.6587 1.52342C10.6587 2.00193 10.4756 2.45115 10.1383 2.79294L8.92398 4.0234C8.76979 4.17964 8.69269 4.38472 8.69269 4.59956C8.69269 4.8144 8.77942 5.01948 8.92398 5.17573L10.1768 6.44524C10.5141 6.78704 10.6972 7.23625 10.6972 7.71476C10.6972 8.19327 10.5141 8.64249 10.1768 8.98428L8.75051 10.4393C8.65414 10.537 8.52886 10.5858 8.41321 10.5858L8.40357 10.5761Z" fill="white"/>
<path d="M13.6692 10.5761C13.5439 10.5761 13.4186 10.5272 13.3319 10.4296C13.1392 10.2343 13.1392 9.93153 13.3319 9.73622L14.7582 8.28116C15.0762 7.9589 15.0762 7.45109 14.7582 7.12883L13.5054 5.85931C12.8211 5.16596 12.8211 4.02339 13.5054 3.33004L14.7197 2.09959C14.8738 1.94334 14.9509 1.73826 14.9509 1.52342C14.9509 1.30858 14.8642 1.1035 14.7197 0.947256C14.5269 0.751946 14.5269 0.449215 14.7197 0.253905C14.9124 0.0585943 15.2112 0.0585943 15.4039 0.253905C15.7412 0.595698 15.9243 1.04491 15.9243 1.52342C15.9243 2.00193 15.7412 2.45115 15.4039 2.79294L14.1896 4.0234C14.0354 4.17964 13.9583 4.38472 13.9583 4.59956C13.9583 4.8144 14.0451 5.01948 14.1896 5.17573L15.4424 6.44524C15.7797 6.78704 15.9629 7.23625 15.9629 7.71476C15.9629 8.19327 15.7797 8.64249 15.4424 8.98428L14.0161 10.4393C13.9198 10.537 13.7945 10.5858 13.6788 10.5858L13.6692 10.5761Z" fill="white"/>
<path d="M8.77344 13.9257C3.92593 13.9257 0.273438 12.3144 0.273438 10.1758C0.273438 9.90234 0.485456 9.6875 0.755297 9.6875C1.02514 9.6875 1.23716 9.90234 1.23716 10.1758C1.23716 11.4844 4.33069 12.9492 8.77344 12.9492C13.2162 12.9492 16.3097 11.4844 16.3097 10.1758C16.3097 9.90234 16.5217 9.6875 16.7916 9.6875C17.0614 9.6875 17.2734 9.90234 17.2734 10.1758C17.2734 12.3144 13.6209 13.9257 8.77344 13.9257Z" fill="white"/>
</svg>
