<svg width="13" height="19" viewBox="0 0 13 19" fill="none" xmlns="http://www.w3.org/2000/svg">
<path d="M7.02808 18.0166H6.6021L6.4535 17.868C0.638424 11.9142 0.668143 6.73317 0.687956 6.15859C0.687956 2.76068 3.43204 0.0166016 6.81013 0.0166016C10.1882 0.0166016 12.9422 2.76068 12.9422 6.13878C12.962 6.73317 12.9918 11.9142 7.17667 17.868L7.02808 18.0166ZM6.82004 1.00725C3.97689 1.00725 1.6786 3.30554 1.6786 6.13878C1.6786 6.40625 1.53991 11.2109 6.81013 16.808C12.0804 11.2109 11.9516 6.40625 11.9417 6.19822C11.9417 3.30554 9.64338 1.00725 6.81013 1.00725H6.82004ZM6.82004 9.51688C5.0567 9.51688 3.62026 8.08044 3.62026 6.3171C3.62026 4.55375 5.0567 3.11732 6.82004 3.11732C8.58339 3.11732 10.0198 4.55375 10.0198 6.3171C10.0198 8.08044 8.58339 9.51688 6.82004 9.51688ZM6.82004 4.10796C5.60155 4.10796 4.61091 5.09861 4.61091 6.3171C4.61091 7.53559 5.60155 8.52623 6.82004 8.52623C8.03853 8.52623 9.02918 7.53559 9.02918 6.3171C9.02918 5.09861 8.03853 4.10796 6.82004 4.10796Z" fill="white"/>
</svg>
