<svg width="15" height="16" viewBox="0 0 15 16" fill="none" xmlns="http://www.w3.org/2000/svg">
<path d="M12.4269 5.18967H3.21289V0.106445H12.4269V5.18967ZM4.2155 4.18706H11.4242V1.10905H4.2155V4.18706Z" fill="white"/>
<path d="M14.7758 12.0267H11.4171V8.68797H4.20835V12.0267H0.849609V4.19629H14.7758V12.0267ZM12.4197 11.024H13.7732V5.1989H1.85222V11.024H3.20574V7.68536H12.4197V11.024Z" fill="white"/>
<path d="M12.4249 15.9268H3.21094V11.5254H4.21355V14.9242H11.4223V11.5254H12.4249V15.9268Z" fill="white"/>
<path d="M12.4249 11.5265H11.4223V8.68913H4.21355V11.5265H3.21094V7.68652H12.4249V11.5265Z" fill="white"/>
<path d="M10.3315 9.37109H5.23828V10.3737H10.3315V9.37109Z" fill="white"/>
<path d="M10.3315 13.6221H5.23828V14.6247H10.3315V13.6221Z" fill="white"/>
<path d="M10.3315 11.4951H5.23828V12.4977H10.3315V11.4951Z" fill="white"/>
</svg>
