<svg width="18" height="18" viewBox="0 0 18 18" fill="none" xmlns="http://www.w3.org/2000/svg">
<path d="M4.23132 16.8691C4.10356 16.8691 3.96515 16.8585 3.83739 16.8266C3.42216 16.7414 3.04952 16.5391 2.75141 16.241L1.62284 15.1124C0.792386 14.282 0.792386 12.9298 1.62284 12.0993L3.20922 10.513C4.03968 9.68251 5.39183 9.68251 6.22228 10.513L7.35085 11.6415C7.45732 11.748 7.55314 11.8651 7.62767 11.9929C8.522 11.6096 9.41634 10.9921 10.2042 10.2042C10.9921 9.41634 11.6096 8.52201 11.9929 7.62767C11.8651 7.54249 11.748 7.45732 11.6415 7.35085L10.513 6.22228C9.68251 5.39183 9.68251 4.03968 10.513 3.20922L12.0993 1.62284C12.9298 0.792386 14.282 0.792386 15.1124 1.62284L16.241 2.75141C16.5391 3.04952 16.7414 3.43281 16.8266 3.83739C16.8478 4.09291 16.8478 4.27391 16.8478 4.46555C16.8159 7.30826 15.336 10.4597 12.8979 12.8979C10.4597 15.336 7.30826 16.8053 4.46555 16.8478C4.39102 16.8478 4.3165 16.8585 4.23132 16.8585V16.8691ZM4.71043 10.9601C4.43361 10.9601 4.16744 11.0666 3.9545 11.2689L2.36812 12.8553C1.95289 13.2705 1.95289 13.9519 2.36812 14.3671L3.49669 15.4957C3.64574 15.6448 3.83739 15.7406 4.03968 15.7832C4.14615 15.8045 4.25261 15.8045 4.39102 15.7832C7.0208 15.7512 9.9061 14.3884 12.1419 12.1419C14.3778 9.89545 15.7406 7.0208 15.7725 4.44426C15.7725 4.28456 15.7725 4.12485 15.7619 3.96515C15.7299 3.82674 15.6341 3.64574 15.485 3.49669L14.3565 2.36812C13.9413 1.95289 13.2599 1.95289 12.8446 2.36812L11.2582 3.9545C10.843 4.36973 10.843 5.05113 11.2582 5.46636L12.3868 6.59492C12.5039 6.71204 12.6423 6.79721 12.8127 6.85045L13.3237 7.0208L13.1534 7.53185C12.7488 8.71365 11.9609 9.93804 10.9388 10.9601C9.91674 11.9822 8.69235 12.7701 7.51055 13.1747L6.9995 13.345L6.82915 12.834C6.77592 12.6636 6.69074 12.5146 6.57363 12.4081L5.44506 11.2795C5.23213 11.0666 4.96595 10.9708 4.68914 10.9708L4.71043 10.9601Z" fill="white"/>
</svg>
