<svg width="14" height="16" viewBox="0 0 14 16" fill="none" xmlns="http://www.w3.org/2000/svg">
<path d="M11.2023 4.72989H2.86719V0.428711H11.1911V4.72989H11.2023ZM3.99718 3.75457H10.0835V1.40403H3.98599V3.75457H3.99718Z" fill="white"/>
<path d="M11.5207 15.8481H1.93254C1.23889 15.8481 0.623544 15.536 0.276716 15.0093C-0.0701123 14.4826 -0.0589243 13.8584 0.299092 13.3415L4.64004 6.99213V5.41211H9.57395V7.19695L11.5207 15.8481ZM5.77003 6.38743V7.26522L1.26126 13.8487C1.11582 14.0632 1.11582 14.3168 1.26126 14.5314C1.40671 14.746 1.65284 14.8728 1.94373 14.8728H10.1669L8.47753 7.29448V6.38743H5.77003Z" fill="white"/>
<path d="M9.57844 6.38826H4.64453V3.75488H9.57844V6.38826ZM5.76333 5.41293H8.45964V4.73021H5.76333V5.41293Z" fill="white"/>
<path d="M13.5411 4.0373H10.084V1.11133H13.5411V4.0373ZM11.2028 3.06198H12.4223V2.08665H11.2028V3.06198Z" fill="white"/>
</svg>
