<svg width="15" height="16" viewBox="0 0 15 16" fill="none" xmlns="http://www.w3.org/2000/svg">
<path d="M10.5027 15.6275H4.97266V0.647461H10.5027V15.6275ZM5.97266 14.6275H9.50266V1.64746H5.97266V14.6275Z" fill="white"/>
<path d="M14.7183 0.647461H0.738281V1.64746H14.7183V0.647461Z" fill="white"/>
<path d="M14.7183 14.6279H0.738281V15.6279H14.7183V14.6279Z" fill="white"/>
<path d="M9.7241 0.808943L5.19141 3.72559L5.73253 4.56653L10.2652 1.64989L9.7241 0.808943Z" fill="white"/>
<path d="M9.73191 3.63902L5.19922 6.55566L5.74034 7.39661L10.273 4.47997L9.73191 3.63902Z" fill="white"/>
<path d="M9.7241 6.2523L5.19141 9.16895L5.73253 10.0099L10.2652 7.09325L9.7241 6.2523Z" fill="white"/>
<path d="M9.7241 8.91051L5.19141 11.8271L5.73253 12.6681L10.2652 9.75145L9.7241 8.91051Z" fill="white"/>
<path d="M9.7241 11.7914L5.19141 14.708L5.73253 15.549L10.2652 12.6323L9.7241 11.7914Z" fill="white"/>
</svg>
