<svg width="20" height="20" viewBox="0 0 20 20" fill="none" xmlns="http://www.w3.org/2000/svg">
<path d="M19.4575 18.0388L13.1175 11.6988C15.2775 8.83875 15.0675 4.74875 12.4675 2.13875C9.6175 -0.711248 4.9875 -0.711248 2.1375 2.12875C-0.7125 4.97875 -0.7125 9.60875 2.1375 12.4488C3.5575 13.8688 5.4275 14.5788 7.2975 14.5788C8.8475 14.5788 10.3975 14.0788 11.6975 13.0988L18.0375 19.4388L19.4475 18.0288L19.4575 18.0388ZM3.5575 11.0388C1.4875 8.96875 1.4875 5.60875 3.5575 3.54875C4.5875 2.51875 5.9475 1.99875 7.3075 1.99875C8.6675 1.99875 10.0175 2.51875 11.0575 3.54875C13.1275 5.61875 13.1275 8.97875 11.0575 11.0388C8.9875 13.0988 5.6275 13.1088 3.5675 11.0388H3.5575Z" fill="#E03A3E"/>
</svg>
