<svg width="292" height="49" viewBox="0 0 292 49" fill="none" xmlns="http://www.w3.org/2000/svg">
<path fill-rule="evenodd" clip-rule="evenodd" d="M132.722 2.37109H158.01V8.59547H138.957V22.428L158.022 22.428L158.022 28.6524L138.957 28.6524V42.4837H158.01V48.7081H132.722V2.37109ZM262.97 2.37109H281.329C286.878 2.37109 291.375 6.86085 291.375 12.3993V18.6236C291.375 22.8917 288.704 26.5371 284.94 27.9847C286.885 30.9333 288.232 34.109 289.152 37.0663C290.544 41.5437 291.024 45.7449 291.024 48.3627H284.788C284.788 46.3697 284.403 42.7905 283.197 38.9112C282.064 35.2696 280.271 31.561 277.585 28.6518H269.205V48.7094H262.97V28.6518H262.97V2.37109ZM281.329 22.4274H269.205V8.59547H281.329C283.434 8.59547 285.14 10.2985 285.14 12.3993V18.6236C285.14 20.7244 283.434 22.4274 281.329 22.4274ZM204.075 22.4274H216.199C218.304 22.4274 220.01 20.7244 220.01 18.6236V12.3993C220.01 10.2985 218.304 8.59547 216.199 8.59547H204.075V22.4274ZM204.075 48.7094V28.6518H212.461C215.147 31.561 216.94 35.2696 218.073 38.9112C219.279 42.7905 219.664 46.3697 219.664 48.3627H225.9C225.9 45.7449 225.42 41.5437 224.028 37.0663C223.108 34.1084 221.76 30.9319 219.814 27.9829C223.576 26.534 226.245 22.8899 226.245 18.6236V12.3993C226.245 6.86085 221.747 2.37109 216.199 2.37109H197.84V5.48453V28.6518V48.7094H204.075ZM230.405 12.3993C230.405 6.86085 234.903 2.37109 240.451 2.37109H248.765C254.313 2.37109 258.81 6.86085 258.81 12.3993V38.68C258.81 44.2184 254.313 48.7081 248.765 48.7081H240.451C234.903 48.7081 230.405 44.2184 230.405 38.68V12.3993ZM240.451 8.59547C238.346 8.59547 236.64 10.2985 236.64 12.3993V38.68C236.64 40.7807 238.346 42.4837 240.451 42.4837H248.765C250.869 42.4837 252.575 40.7807 252.575 38.68V12.3993C252.575 10.2985 250.869 8.59547 248.765 8.59547H240.451ZM171.516 48.7094V28.6518H179.915C182.601 31.561 184.394 35.2696 185.526 38.9112C186.732 42.7905 187.118 46.3697 187.118 48.3627H193.353C193.353 45.7449 192.873 41.5437 191.481 37.0663C190.561 34.1071 189.212 30.9292 187.265 27.9791C191.022 26.5276 193.686 22.8862 193.686 18.6236V12.3993C193.686 6.86085 189.189 2.37109 183.64 2.37109H165.281V5.48453V28.6518V48.7094H171.516ZM183.64 22.4274H171.516V8.59547H183.64C185.745 8.59547 187.451 10.2985 187.451 12.3993V18.6236C187.451 20.7244 185.745 22.4274 183.64 22.4274Z" fill="#E03A3E"/>
<path fill-rule="evenodd" clip-rule="evenodd" d="M37.5823 4.46441L33.0974 0L0 33.1331H32.173V48.8612H38.5067V29.8933H38.5091V18.8288H32.1754V26.8106H15.2603L37.5823 4.46441Z" fill="#E03A3E"/>
<path fill-rule="evenodd" clip-rule="evenodd" d="M85.5044 26.5233V17.5692L103.055 0L107.539 4.46441L85.5044 26.5233ZM85.5044 33.1331V26.8106H102.13L102.13 18.8288H108.464V26.732H112.422V33.0546H108.464V48.8612H102.13V33.1331H85.5044Z" fill="#E03A3E"/>
<path fill-rule="evenodd" clip-rule="evenodd" d="M75.4034 30.8229C75.4034 24.1801 69.9911 18.7773 63.3367 18.7773C56.6823 18.7773 51.27 24.1801 51.27 30.8229C51.27 37.4657 56.6823 42.8685 63.3367 42.8685C69.9911 42.8685 75.4034 37.4657 75.4034 30.8229ZM45.1274 30.8229C45.1274 20.7872 53.2834 12.6455 63.3367 12.6455C70.1222 12.6455 76.0383 16.3495 79.1708 21.8404V39.8028C76.0372 45.2952 70.1187 49.0003 63.3367 49.0003C53.2834 49.0003 45.1274 40.8587 45.1274 30.8229Z" fill="#E03A3E"/>
</svg>
