<svg width="287" height="54" viewBox="0 0 287 54" fill="none" xmlns="http://www.w3.org/2000/svg">
<path d="M191.001 39.2705H160.797V44.0999H191.001V39.2705Z" fill="black"/>
<path d="M165.224 32.4996V24.2559H160.797V32.4996V37.3289H165.224H191.001V32.4996H165.224Z" fill="black"/>
<path d="M165.224 45.6982H160.797V49.1706V53.9999H165.224H191.001V49.1706H165.224V45.6982Z" fill="black"/>
<path d="M27.4086 24.2559V41.685H22.9814V24.2559H18.0948V41.685H6.62126C5.66349 41.685 4.88654 40.9172 4.88654 39.9706V24.2559H0V41.685C0 44.3508 2.18917 46.5144 4.88654 46.5144H18.09V53.9999H22.9765V46.5144H27.4037V53.9999H32.2902V24.2559H27.4037H27.4086Z" fill="black"/>
<path d="M78.4686 41.685V24.2559H73.582V53.9999H78.4686V46.5144H82.9007V41.685H78.4686Z" fill="black"/>
<path d="M117.58 24.2559H112.693V53.9999H117.58V24.2559Z" fill="black"/>
<path d="M122.007 41.6851H117.58V46.5144H122.007V41.6851Z" fill="black"/>
<path d="M109.63 29.0852V24.2559H84.9141V29.0852H88.7207V41.685H84.9141V46.5144H109.63V41.685H105.824V29.0852H109.63ZM101.391 41.685H93.1479V29.0852H101.391V41.685Z" fill="black"/>
<path d="M154.87 29.0852V24.2559H127.256V26.9072V29.0852V32.9729V24.2559V46.1329V46.215H154.87V41.9845H131.683V37.8022H154.87V32.9729H131.683V29.0852H154.87Z" fill="black"/>
<path d="M157.395 49.1709H124.729V54.0003H157.395V49.1709Z" fill="black"/>
<path d="M58.1588 48.4269C51.3421 48.4269 45.8008 42.9456 45.8008 36.2135C45.8008 29.4813 51.3421 24 58.1588 24C64.9755 24 70.5169 29.4765 70.5169 36.2135C70.5169 42.9504 64.9707 48.4269 58.1588 48.4269ZM58.1588 28.8294C54.0395 28.8294 50.6873 32.1423 50.6873 36.2135C50.6873 40.2846 54.0395 43.5976 58.1588 43.5976C62.2782 43.5976 65.6303 40.2846 65.6303 36.2135C65.6303 32.1423 62.2782 28.8294 58.1588 28.8294Z" fill="black"/>
<g clip-path="url(#clip0_1650_170)">
<path d="M229.997 30.7271C223.592 30.7271 218.379 35.9481 218.379 42.3636C218.379 48.7792 223.592 54.0002 229.997 54.0002C236.402 54.0002 241.615 48.7792 241.615 42.3636C241.615 35.9481 236.402 30.7271 229.997 30.7271ZM235.977 42.3636C235.977 45.6648 233.293 48.3535 229.997 48.3535C226.701 48.3535 224.017 45.6648 224.017 42.3636C224.017 39.0625 226.701 36.3738 229.997 36.3738C233.293 36.3738 235.977 39.0625 235.977 42.3636Z" fill="#E03A3E"/>
<path d="M230.817 0H220.535C213.071 0 207 6.08108 207 13.5565V15.6414H212.638V13.5565C212.638 9.19546 216.181 5.64672 220.535 5.64672H230.817C235.172 5.64672 238.715 9.19546 238.715 13.5565C238.715 17.9175 235.172 21.4662 230.817 21.4662H220.535C213.071 21.4662 207 27.543 207 35.0183V54H212.638V35.0183C212.638 30.6573 216.181 27.1086 220.535 27.1086H230.817C238.281 27.1086 244.352 21.0275 244.352 13.5521C244.352 6.07674 238.281 0 230.817 0Z" fill="#E03A3E"/>
<path d="M255.291 13.5565C255.291 9.19546 258.834 5.64672 263.188 5.64672H273.47C277.824 5.64672 281.367 9.19546 281.367 13.5565C281.367 17.9175 277.824 21.4662 273.47 21.4662H269.845V27.1129H273.47C280.934 27.1129 287.005 21.0319 287.005 13.5565C287.005 6.08108 280.929 0 273.466 0H263.183C255.72 0 249.648 6.08108 249.648 13.5565V15.6414H255.286V13.5565H255.291Z" fill="#E03A3E"/>
<path d="M273.185 30.7271C266.779 30.7271 261.566 35.9481 261.566 42.3636C261.566 48.7792 266.779 54.0002 273.185 54.0002C279.59 54.0002 284.803 48.7792 284.803 42.3636C284.803 35.9481 279.59 30.7271 273.185 30.7271ZM279.165 42.3636C279.165 45.6648 276.48 48.3535 273.185 48.3535C269.889 48.3535 267.204 45.6648 267.204 42.3636C267.204 39.0625 269.889 36.3738 273.185 36.3738C276.48 36.3738 279.165 39.0625 279.165 42.3636Z" fill="#E03A3E"/>
<path d="M256.353 32.5903H250.715V54.0044H256.353V32.5903Z" fill="#E03A3E"/>
</g>
<defs>
<clipPath id="clip0_1650_170">
<rect width="80" height="54" fill="white" transform="translate(207)"/>
</clipPath>
</defs>
</svg>
