<svg width="263" height="54" viewBox="0 0 263 54" fill="none" xmlns="http://www.w3.org/2000/svg">
<path d="M169.885 40.3281H143.049V44.6191H169.885V40.3281Z" fill="black"/>
<path d="M146.803 34.5532V27.2285H142.869V34.5532V38.8441H146.803H169.706V34.5532H146.803Z" fill="black"/>
<path d="M146.803 46.2793H142.869V49.3645V53.6554H146.803H169.706V49.3645H146.803V46.2793Z" fill="black"/>
<path d="M24.3529 27.2266V42.7126H20.4193V27.2266H16.0775V42.7126H5.88307C5.03209 42.7126 4.34175 42.0304 4.34175 41.1893V27.2266H0V42.7126C0 45.0812 1.94511 47.0036 4.34175 47.0036H16.0732V53.6545H20.4149V47.0036H24.3485V53.6545H28.6903V27.2266H24.3485H24.3529Z" fill="black"/>
<path d="M69.7207 42.7126V27.2266H65.3789V53.6545H69.7207V47.0036H73.6586V42.7126H69.7207Z" fill="black"/>
<path d="M104.471 27.2266H100.129V53.6545H104.471V27.2266Z" fill="black"/>
<path d="M108.404 42.7129H104.471V47.0038H108.404V42.7129Z" fill="black"/>
<path d="M97.4079 31.5175V27.2266H75.4473V31.5175H78.8295V42.7126H75.4473V47.0036H97.4079V42.7126H94.0256V31.5175H97.4079ZM90.0877 42.7126H82.7631V31.5175H90.0877V42.7126Z" fill="black"/>
<path d="M137.604 31.5175V27.2266H113.068V29.5823V31.5175V34.9717V27.2266V46.6646V46.7375H137.604V42.9787H117.002V39.2627H137.604V34.9717H117.002V31.5175H137.604Z" fill="black"/>
<path d="M139.847 49.3633H110.822V53.6542H139.847V49.3633Z" fill="black"/>
<path d="M51.6756 48.7036C45.6189 48.7036 40.6953 43.8334 40.6953 37.8518C40.6953 31.8702 45.6189 27 51.6756 27C57.7323 27 62.6559 31.8659 62.6559 37.8518C62.6559 43.8377 57.728 48.7036 51.6756 48.7036ZM51.6756 31.291C48.0155 31.291 45.0371 34.2345 45.0371 37.8518C45.0371 41.4691 48.0155 44.4127 51.6756 44.4127C55.3357 44.4127 58.3141 41.4691 58.3141 37.8518C58.3141 34.2345 55.3357 31.291 51.6756 31.291Z" fill="black"/>
<g clip-path="url(#clip0_2015_1825)">
<path d="M206.654 30.6777C200.323 30.6777 195.17 35.8321 195.17 42.1658C195.17 48.4995 200.323 53.6539 206.654 53.6539C212.986 53.6539 218.138 48.4995 218.138 42.1658C218.138 35.8321 212.986 30.6777 206.654 30.6777ZM212.566 42.1658C212.566 45.4248 209.912 48.0792 206.654 48.0792C203.396 48.0792 200.743 45.4248 200.743 42.1658C200.743 38.9068 203.396 36.2524 206.654 36.2524C209.912 36.2524 212.566 38.9068 212.566 42.1658Z" fill="#B53A40"/>
<path d="M207.465 0.34375H197.301C189.923 0.34375 183.922 6.34722 183.922 13.7272V15.7855H189.495V13.7272C189.495 9.42185 192.997 5.9184 197.301 5.9184H207.465C211.769 5.9184 215.271 9.42185 215.271 13.7272C215.271 18.0325 211.769 21.536 207.465 21.536H197.301C189.923 21.536 183.922 27.5352 183.922 34.9152V53.6546H189.495V34.9152C189.495 30.6098 192.997 27.1064 197.301 27.1064H207.465C214.842 27.1064 220.844 21.1029 220.844 13.7229C220.844 6.34293 214.842 0.34375 207.465 0.34375Z" fill="#B53A40"/>
<path d="M231.655 13.7272C231.655 9.42185 235.157 5.9184 239.461 5.9184H249.625C253.929 5.9184 257.431 9.42185 257.431 13.7272C257.431 18.0325 253.929 21.536 249.625 21.536H246.042V27.1106H249.625C257.003 27.1106 263.004 21.1072 263.004 13.7272C263.004 6.34722 256.998 0.34375 249.621 0.34375H239.457C232.08 0.34375 226.078 6.34722 226.078 13.7272V15.7855H231.651V13.7272H231.655Z" fill="#B53A40"/>
<path d="M249.342 30.6777C243.01 30.6777 237.857 35.8321 237.857 42.1658C237.857 48.4995 243.01 53.6539 249.342 53.6539C255.673 53.6539 260.826 48.4995 260.826 42.1658C260.826 35.8321 255.673 30.6777 249.342 30.6777ZM255.253 42.1658C255.253 45.4248 252.6 48.0792 249.342 48.0792C246.084 48.0792 243.43 45.4248 243.43 42.1658C243.43 38.9068 246.084 36.2524 249.342 36.2524C252.6 36.2524 255.253 38.9068 255.253 42.1658Z" fill="#B53A40"/>
<path d="M232.706 32.5176H227.133V53.6584H232.706V32.5176Z" fill="#B53A40"/>
</g>
<defs>
<clipPath id="clip0_2015_1825">
<rect width="79.0777" height="53.3108" fill="white" transform="translate(183.922 0.34375)"/>
</clipPath>
</defs>
</svg>
